# Blender v3.1.2 OBJ File: ''
# www.blender.org
mtllib Branch.mtl
o Eda.001_平面.022
v -1.940603 10.293879 1.965596
v -2.399887 8.547842 2.826069
v -2.799095 11.269045 3.486136
v -3.258379 9.523008 4.346610
v -1.296739 9.430948 2.882541
v -3.043751 9.410773 1.909123
v -2.155231 10.406115 4.403082
v -3.902243 10.385940 3.429664
v -2.625526 10.031045 1.747454
v -1.714965 8.810677 3.044211
v -3.484018 11.006210 3.267995
v -2.573456 9.785843 4.564752
v -1.390202 10.045311 2.435764
v -2.950289 8.796411 2.355901
v -2.248694 11.020476 3.956305
v -3.808780 9.771576 3.876441
v -3.141082 9.416677 -2.539838
v -3.734864 7.511851 -2.677918
v -4.597680 9.961884 -3.797243
v -5.191463 8.057059 -3.935324
v -4.055577 8.600638 -1.834303
v -2.820368 8.327888 -3.383453
v -5.512176 9.145845 -3.091709
v -4.276966 8.873096 -4.640859
v -2.791326 9.041289 -3.107766
v -4.084619 7.887238 -2.109989
v -4.247925 9.586498 -4.365172
v -5.541218 8.432446 -3.367395
v -3.664752 9.234152 -2.012352
v -3.211194 7.694375 -3.205404
v -5.121350 9.779360 -3.269758
v -4.667792 8.239583 -4.462810
v -1.743204 9.021558 -1.022531
v -2.757952 7.401392 -0.434869
v -3.351170 10.157007 -0.668690
v -4.365917 8.536840 -0.081028
v -1.940443 8.357945 0.210642
v -2.560714 8.065004 -1.668042
v -3.548408 9.493394 0.564483
v -4.168679 9.200455 -1.314200
v -2.111110 8.680720 -1.600685
v -2.390047 7.742229 0.143285
v -3.719075 9.816170 -1.246844
v -3.998012 8.877678 0.497126
v -1.672512 8.887860 -0.272255
v -2.828645 7.535089 -1.185145
v -3.280477 10.023310 0.081587
v -4.436610 8.670538 -0.831303
v 0.081613 8.158998 0.627423
v -1.585774 7.169910 1.118876
v 0.334935 8.682730 2.540936
v -1.332453 7.693642 3.032389
v -0.214575 6.835688 1.028826
v -1.289586 8.493220 0.717472
v 0.038746 7.359420 2.942339
v -1.036265 9.016952 2.630986
v -0.542644 8.600176 0.589314
v -0.961517 6.728733 1.156984
v -0.289322 9.123907 2.502827
v -0.708196 7.252465 3.070498
v 0.217504 7.428123 0.809474
v -1.721665 7.900784 0.936824
v 0.470825 7.951856 2.722988
v -1.468343 8.424517 2.850338
v -1.549640 10.210861 2.149313
v -1.044966 8.442393 2.935334
v -0.908936 11.130040 3.805999
v -0.404262 9.361574 4.592021
v -0.384231 9.409747 2.143087
v -2.210375 9.243507 2.941562
v 0.256473 10.328926 3.799772
v -1.569671 10.162687 4.598248
v -2.121372 9.893101 2.546727
v -0.473235 8.760155 2.537921
v -1.480668 10.812280 4.203413
v 0.167470 9.679333 4.194607
v -0.830093 10.010650 1.982119
v -1.764513 8.642606 3.102528
v -0.189389 10.929828 3.638806
v -1.123809 9.561785 4.759214
v 0.148496 8.571620 -2.480517
v -0.851232 6.841905 -2.387602
v -1.558364 9.537013 -2.873765
v -2.558092 7.807298 -2.780850
v -0.498995 7.844695 -1.454681
v -0.203741 7.568828 -3.413437
v -2.205855 8.810089 -1.847930
v -1.910601 8.534224 -3.806686
v 0.106477 8.220776 -3.159434
v -0.809213 7.192749 -1.708684
v -1.600383 9.186169 -3.552682
v -2.516073 8.158142 -2.101933
v -0.102299 8.415842 -1.774385
v -0.600437 6.997682 -3.093734
v -1.809159 9.381235 -2.167633
v -2.307297 7.963075 -3.486982
v 0.053171 8.731642 -2.632217
v -0.257460 6.860821 -3.267464
v 0.043203 9.376168 -4.525491
v -0.267428 7.505347 -5.160738
v -1.089997 7.941675 -2.895125
v 0.885708 7.650787 -3.004555
v -1.099965 8.586202 -4.788400
v 0.875740 8.295314 -4.897830
v 0.706198 8.354821 -2.763936
v -0.910486 7.237641 -3.135745
v 0.696229 8.999348 -4.657209
v -0.920454 7.882167 -5.029019
v -0.690837 8.560512 -2.686558
v 0.486548 7.031951 -3.213123
v -0.700805 9.205037 -4.579831
v 0.476580 7.676478 -5.106397
v 2.010348 9.355001 -3.183963
v 2.137632 7.484181 -3.879541
v 3.126580 9.999529 -4.713216
v 3.253864 8.128707 -5.408794
v 1.246671 8.565036 -4.074329
v 2.901309 8.274148 -2.989176
v 2.362903 9.209562 -5.603582
v 4.017541 8.918674 -4.518428
v 2.613991 8.978183 -2.902169
v 1.533989 7.861001 -4.161336
v 3.730223 9.622708 -4.431421
v 2.650221 8.505527 -5.690588
v 1.443986 9.183872 -3.669488
v 2.703995 7.655312 -3.394017
v 2.560217 9.828398 -5.198740
v 3.820226 8.299839 -4.923270
v 1.619613 9.560666 -2.255517
v 1.331527 8.386384 -3.848649
v 2.178592 11.056765 -3.459357
v 1.890506 9.882483 -5.052489
v 0.526288 9.282858 -3.108432
v 2.424853 8.664189 -2.995734
v 1.085267 10.778957 -4.312271
v 2.983832 10.160289 -4.199574
v 2.248668 9.169964 -2.448982
v 0.702472 8.777086 -3.655185
v 2.807647 10.666063 -3.652821
v 1.261451 10.273185 -4.859024
v 0.906180 9.607429 -2.528671
v 2.044960 8.339621 -3.575496
v 1.465159 11.103529 -3.732510
v 2.603940 9.835721 -4.779336
v 2.881851 8.262682 -0.890345
v 0.975289 7.670946 -0.768395
v 2.372200 9.621069 -2.266951
v 0.465638 9.029332 -2.145002
v 1.766336 8.638497 -0.106514
v 2.090803 7.295130 -1.552227
v 1.256685 9.996883 -1.483120
v 1.581152 8.653515 -2.928833
v 2.717357 7.701072 -1.383623
v 1.139782 8.232555 -0.275118
v 2.207706 9.059458 -2.760229
v 0.630131 9.590941 -1.651724
v 2.487925 8.650977 -0.361349
v 1.369215 7.282651 -1.297392
v 1.978273 10.009362 -1.737955
v 0.859563 8.641038 -2.673997
v 2.228730 8.658933 -0.378198
v 2.635102 6.787455 -0.954765
v 3.876393 9.303930 -1.310500
v 4.282764 7.432452 -1.887067
v 1.902749 7.865976 -1.502900
v 2.961083 7.580412 0.169937
v 3.550412 8.510972 -2.435202
v 4.608746 8.225409 -0.762365
v 2.662419 8.283899 0.128803
v 2.201413 7.162488 -1.461766
v 4.310081 8.928896 -0.803499
v 3.849075 7.807485 -2.394068
v 1.914064 8.485824 -1.054071
v 2.949768 6.960564 -0.278892
v 3.561727 9.130820 -1.986374
v 4.597430 7.605560 -1.211194
v 3.057836 9.626856 -0.138327
v 4.732937 8.581095 -0.455215
v 3.934912 11.259542 -0.890039
v 5.610013 10.213781 -1.206928
v 3.569513 8.858660 -1.209803
v 4.221259 9.349289 0.616261
v 4.446589 10.491346 -1.961516
v 5.098335 10.981976 -0.135451
v 3.533576 9.647171 0.460878
v 4.257196 8.560778 -1.054419
v 4.410652 11.279859 -0.290835
v 5.134273 10.193465 -1.806132
v 3.072721 9.300244 -0.830345
v 4.718052 8.907705 0.236803
v 3.949797 10.932931 -1.582058
v 5.595127 10.540393 -0.514910
v 4.121430 9.495988 0.243853
v 4.983753 7.718094 -0.065165
v 5.920575 10.369516 0.238689
v 6.782899 8.591622 -0.070328
v 4.482814 8.744920 -0.898644
v 4.622371 8.469163 1.077332
v 6.281959 9.618447 -0.903808
v 6.421515 9.342690 1.072169
v 4.297056 9.138125 0.897211
v 4.808128 8.075955 -0.718523
v 6.096201 10.011655 0.892048
v 6.607273 8.949484 -0.723686
v 4.198374 9.333116 -0.500015
v 4.906811 7.880966 0.678703
v 5.997519 10.206644 -0.505178
v 6.705956 8.754495 0.673540
v 0.787545 8.558807 1.431762
v 1.449425 6.722971 0.994015
v 2.094052 8.669743 2.941972
v 2.755930 6.833907 2.504226
v 1.799470 8.033763 0.594899
v 0.437500 7.248014 1.830878
v 3.105976 8.144699 2.105110
v 1.744006 7.358951 3.341088
v 0.402947 8.012151 1.804639
v 1.834024 7.269627 0.621137
v 1.709452 8.123087 3.314850
v 3.140529 7.380562 2.131348
v 1.366004 8.567759 0.930671
v 0.870966 6.714019 1.495106
v 2.672509 8.678695 2.440882
v 2.177472 6.824955 3.005317
v 1.537643 8.493342 0.667161
v -0.292650 7.791600 1.064133
v 0.844660 10.365911 0.782278
v -0.985633 9.664171 1.179250
v 0.828532 8.158570 1.844059
v 0.416461 8.126370 -0.112765
v 0.135548 10.031142 1.959176
v -0.276522 9.998942 0.002352
v 1.123914 8.379190 0.033454
v 0.121079 7.905751 1.697840
v 0.430930 10.251760 0.148571
v -0.571904 9.778323 1.812956
v 1.415292 8.401958 1.417138
v -0.170299 7.882983 0.314156
v 0.722309 10.274529 1.532254
v -0.863282 9.755555 0.429273
v 1.500175 9.130875 2.246104
v 1.735135 7.803562 3.723614
v 1.553768 10.622381 3.577470
v 1.788727 9.295069 5.054979
v 2.610368 8.525627 2.879465
v 0.624941 8.408810 3.090254
v 2.663961 10.017134 4.210830
v 0.678534 9.900317 4.421618
v 0.832630 8.895193 2.537006
v 2.402680 8.039243 3.432713
v 0.886222 10.386701 3.868371
v 2.456273 9.530750 4.764078
v 2.236539 8.977796 2.387955
v 0.998771 7.956641 3.581763
v 2.290131 10.469302 3.719321
v 1.052364 9.448149 4.913128
v 1.958508 8.736756 2.981631
v 2.543251 6.865936 3.379256
v 2.905950 9.381284 4.620820
v 3.490693 7.510462 5.018445
v 3.081607 7.946791 2.643099
v 1.420152 7.655902 3.717788
v 4.029049 8.591316 4.282288
v 2.367594 8.300428 5.356977
v 1.456729 8.359937 3.419822
v 3.045030 7.242756 2.941066
v 2.404171 9.004463 5.059010
v 3.992472 7.887282 4.580255
v 2.631554 8.565625 2.659902
v 1.870205 7.037067 3.700985
v 3.578996 9.210153 4.299091
v 2.817647 7.681593 5.340174
vt 1.000000 0.000000
vt 0.000000 1.000000
vt 0.000000 0.000000
vt 1.000000 1.000000
vt 1.000000 0.000000
vt 0.000000 1.000000
vt 0.000000 0.000000
vt 1.000000 1.000000
vt 1.000000 0.000000
vt 0.000000 1.000000
vt 0.000000 0.000000
vt 1.000000 1.000000
vt 1.000000 0.000000
vt 0.000000 1.000000
vt 0.000000 0.000000
vt 1.000000 1.000000
vt 1.000000 0.000000
vt 0.000000 1.000000
vt 0.000000 0.000000
vt 1.000000 1.000000
vt 0.000000 0.000000
vt 1.000000 1.000000
vt 0.000000 1.000000
vt 1.000000 0.000000
vt 0.000000 0.000000
vt 1.000000 1.000000
vt 0.000000 1.000000
vt 1.000000 0.000000
vt 1.000000 0.000000
vt 0.000000 1.000000
vt 0.000000 0.000000
vt 1.000000 1.000000
vt 1.000000 0.000000
vt 0.000000 1.000000
vt 0.000000 0.000000
vt 1.000000 1.000000
vt 1.000000 0.000000
vt 0.000000 1.000000
vt 0.000000 0.000000
vt 1.000000 1.000000
vt 1.000000 0.000000
vt 0.000000 1.000000
vt 0.000000 0.000000
vt 1.000000 1.000000
vt 0.000000 0.000000
vt 1.000000 1.000000
vt 0.000000 1.000000
vt 1.000000 0.000000
vt 0.000000 0.000000
vt 1.000000 1.000000
vt 0.000000 1.000000
vt 1.000000 0.000000
vt 1.000000 0.000000
vt 0.000000 1.000000
vt 0.000000 0.000000
vt 1.000000 1.000000
vt 1.000000 0.000000
vt 0.000000 1.000000
vt 0.000000 0.000000
vt 1.000000 1.000000
vt 1.000000 0.000000
vt 0.000000 1.000000
vt 0.000000 0.000000
vt 1.000000 1.000000
vt 1.000000 0.000000
vt 0.000000 1.000000
vt 0.000000 0.000000
vt 1.000000 1.000000
vt 1.000000 0.000000
vt 0.000000 1.000000
vt 0.000000 0.000000
vt 1.000000 1.000000
vt 1.000000 0.000000
vt 0.000000 1.000000
vt 0.000000 0.000000
vt 1.000000 1.000000
vt 0.000000 0.000000
vt 1.000000 1.000000
vt 0.000000 1.000000
vt 1.000000 0.000000
vt 1.000000 0.000000
vt 0.000000 1.000000
vt 0.000000 0.000000
vt 1.000000 1.000000
vt 1.000000 0.000000
vt 0.000000 1.000000
vt 0.000000 0.000000
vt 1.000000 1.000000
vt 1.000000 0.000000
vt 0.000000 1.000000
vt 0.000000 0.000000
vt 1.000000 1.000000
vt 0.000000 0.000000
vt 1.000000 1.000000
vt 0.000000 1.000000
vt 1.000000 0.000000
vt 0.000000 0.000000
vt 1.000000 1.000000
vt 0.000000 1.000000
vt 1.000000 0.000000
vt 1.000000 0.000000
vt 0.000000 1.000000
vt 0.000000 0.000000
vt 1.000000 1.000000
vt 0.000000 0.000000
vt 1.000000 1.000000
vt 0.000000 1.000000
vt 1.000000 0.000000
vt 1.000000 0.000000
vt 0.000000 1.000000
vt 0.000000 0.000000
vt 1.000000 1.000000
vt 1.000000 0.000000
vt 0.000000 1.000000
vt 0.000000 0.000000
vt 1.000000 1.000000
vt 1.000000 0.000000
vt 0.000000 1.000000
vt 0.000000 0.000000
vt 1.000000 1.000000
vt 0.000000 0.000000
vt 1.000000 1.000000
vt 0.000000 1.000000
vt 1.000000 0.000000
vt 0.000000 0.000000
vt 1.000000 1.000000
vt 0.000000 1.000000
vt 1.000000 0.000000
vt 1.000000 0.000000
vt 0.000000 1.000000
vt 0.000000 0.000000
vt 1.000000 1.000000
vt 1.000000 0.000000
vt 0.000000 1.000000
vt 0.000000 0.000000
vt 1.000000 1.000000
vt 1.000000 0.000000
vt 0.000000 1.000000
vt 0.000000 0.000000
vt 1.000000 1.000000
vt 1.000000 0.000000
vt 0.000000 1.000000
vt 0.000000 0.000000
vt 1.000000 1.000000
vt 0.000000 0.000000
vt 1.000000 1.000000
vt 0.000000 1.000000
vt 1.000000 0.000000
vt 0.000000 0.000000
vt 1.000000 1.000000
vt 0.000000 1.000000
vt 1.000000 0.000000
vt 1.000000 0.000000
vt 0.000000 1.000000
vt 0.000000 0.000000
vt 1.000000 1.000000
vt 0.000000 0.000000
vt 1.000000 1.000000
vt 0.000000 1.000000
vt 1.000000 0.000000
vt 0.000000 0.000000
vt 1.000000 1.000000
vt 0.000000 1.000000
vt 1.000000 0.000000
vt 1.000000 0.000000
vt 0.000000 1.000000
vt 0.000000 0.000000
vt 1.000000 1.000000
vt 0.000000 0.000000
vt 1.000000 1.000000
vt 0.000000 1.000000
vt 1.000000 0.000000
vt 1.000000 0.000000
vt 0.000000 1.000000
vt 0.000000 0.000000
vt 1.000000 1.000000
vt 1.000000 0.000000
vt 0.000000 1.000000
vt 0.000000 0.000000
vt 1.000000 1.000000
vt 0.000000 0.000000
vt 1.000000 1.000000
vt 0.000000 1.000000
vt 1.000000 0.000000
vt 1.000000 0.000000
vt 0.000000 1.000000
vt 0.000000 0.000000
vt 1.000000 1.000000
vt 0.000000 0.000000
vt 1.000000 1.000000
vt 0.000000 1.000000
vt 1.000000 0.000000
vt 1.000000 0.000000
vt 0.000000 1.000000
vt 0.000000 0.000000
vt 1.000000 1.000000
vt 1.000000 0.000000
vt 0.000000 1.000000
vt 0.000000 0.000000
vt 1.000000 1.000000
vt 1.000000 0.000000
vt 0.000000 1.000000
vt 0.000000 0.000000
vt 1.000000 1.000000
vt 0.000000 0.000000
vt 1.000000 1.000000
vt 0.000000 1.000000
vt 1.000000 0.000000
vt 1.000000 0.000000
vt 0.000000 1.000000
vt 0.000000 0.000000
vt 1.000000 1.000000
vt 0.000000 0.000000
vt 1.000000 1.000000
vt 0.000000 1.000000
vt 1.000000 0.000000
vt 1.000000 0.000000
vt 0.000000 1.000000
vt 0.000000 0.000000
vt 1.000000 1.000000
vt 1.000000 0.000000
vt 0.000000 1.000000
vt 0.000000 0.000000
vt 1.000000 1.000000
vt 1.000000 0.000000
vt 0.000000 1.000000
vt 0.000000 0.000000
vt 1.000000 1.000000
vt 1.000000 0.000000
vt 0.000000 1.000000
vt 0.000000 0.000000
vt 1.000000 1.000000
vt 1.000000 0.000000
vt 0.000000 1.000000
vt 0.000000 0.000000
vt 1.000000 1.000000
vt 0.000000 0.000000
vt 1.000000 1.000000
vt 0.000000 1.000000
vt 1.000000 0.000000
vt 0.000000 0.000000
vt 1.000000 1.000000
vt 0.000000 1.000000
vt 1.000000 0.000000
vt 0.000000 0.000000
vt 1.000000 1.000000
vt 0.000000 1.000000
vt 1.000000 0.000000
vt 1.000000 0.000000
vt 0.000000 1.000000
vt 0.000000 0.000000
vt 1.000000 1.000000
vt 1.000000 0.000000
vt 0.000000 1.000000
vt 0.000000 0.000000
vt 1.000000 1.000000
vt 1.000000 0.000000
vt 0.000000 1.000000
vt 0.000000 0.000000
vt 1.000000 1.000000
vt 1.000000 0.000000
vt 0.000000 1.000000
vt 0.000000 0.000000
vt 1.000000 1.000000
vt 1.000000 0.000000
vt 0.000000 1.000000
vt 0.000000 0.000000
vt 1.000000 1.000000
vt 1.000000 0.000000
vt 0.000000 1.000000
vt 0.000000 0.000000
vt 1.000000 1.000000
vn -0.8735 -0.0101 -0.4867
vn 0.2296 0.8730 -0.4302
vn -0.7800 -0.6245 -0.0399
vn -0.4553 0.6102 -0.6484
vn 0.6176 -0.1364 -0.7746
vn 0.2969 0.9524 0.0690
vn 0.2268 -0.7699 -0.5965
vn 0.6466 0.5770 -0.4989
vn -0.3101 -0.1465 -0.9393
vn 0.5074 0.8101 -0.2938
vn -0.5781 -0.6764 -0.4564
vn 0.1395 0.4692 -0.8720
vn -0.5375 0.8288 -0.1557
vn 0.8337 0.4945 -0.2457
vn -0.9696 0.2363 0.0637
vn 0.2094 0.9357 -0.2838
vn -0.9131 -0.0831 0.3992
vn -0.2523 0.8842 -0.3930
vn -0.4672 -0.6840 0.5602
vn -0.8241 0.5665 0.0044
vn 0.1476 -0.1379 -0.9794
vn 0.4999 0.8649 -0.0465
vn -0.2491 -0.7091 -0.6597
vn 0.4578 0.5140 -0.7254
vn 0.9879 -0.1454 -0.0547
vn 0.1553 0.9354 0.3176
vn 0.5887 -0.7643 -0.2633
vn 0.8083 0.5586 0.1859
vn 0.8273 -0.1454 0.5426
vn -0.0636 0.9354 0.3478
vn 0.6300 -0.7643 0.1377
vn 0.5400 0.5586 0.6296
vn 0.9493 -0.3093 0.0563
vn 0.1440 0.5871 0.7966
vn 0.5694 -0.6339 -0.5234
vn 0.7731 0.1964 0.6031
vn 0.1622 -0.6717 -0.7229
vn 0.9533 0.2959 -0.0610
vn -0.5594 -0.6842 -0.4680
vn 0.7888 -0.2657 -0.5543
vn 0.5292 -0.1428 0.8364
vn -0.2032 0.9357 0.2883
vn 0.5179 -0.7626 0.3876
vn 0.2305 0.5607 0.7953
vn 0.3259 0.2453 0.9130
vn -0.8376 0.5229 0.1584
vn 0.8227 -0.1963 0.5336
vn -0.3618 0.5432 0.7576
vn 0.0698 -0.1379 0.9880
vn -0.4312 0.8889 0.1545
vn 0.3542 -0.7261 0.5894
vn -0.2555 0.5311 0.8079
vn -0.6810 -0.3929 0.6180
vn -0.3309 0.9179 0.2189
vn -0.2475 -0.9269 0.2822
vn -0.7155 0.3713 0.5918
vn -0.2060 -0.0161 -0.9784
vn 0.9151 0.3509 -0.1985
vn -0.7928 -0.2595 -0.5515
vn 0.5014 0.2367 -0.8322
vn -0.9927 -0.0584 0.1054
vn -0.1175 0.6637 -0.7388
vn -0.6189 -0.5106 0.5969
vn -0.7850 0.4280 -0.4479
vn -0.8307 -0.1454 0.5373
vn -0.2924 0.9354 -0.1988
vn -0.3807 -0.7643 0.5205
vn -0.7942 0.5586 0.2394
usemtl マテリアル.209
s off
f 2/1/1 3/2/1 1/3/1
f 2/1/1 4/4/1 3/2/1
usemtl マテリアル.210
f 6/5/2 7/6/2 5/7/2
f 6/5/2 8/8/2 7/6/2
usemtl マテリアル.211
f 10/9/3 11/10/3 9/11/3
f 10/9/3 12/12/3 11/10/3
usemtl マテリアル.212
f 14/13/4 15/14/4 13/15/4
f 14/13/4 16/16/4 15/14/4
usemtl マテリアル.008
f 18/17/5 19/18/5 17/19/5
f 18/17/5 20/20/5 19/18/5
usemtl マテリアル.009
f 21/21/6 24/22/6 23/23/6
f 21/21/6 22/24/6 24/22/6
usemtl マテリアル.010
f 25/25/7 28/26/7 27/27/7
f 25/25/7 26/28/7 28/26/7
usemtl マテリアル.011
f 30/29/8 31/30/8 29/31/8
f 30/29/8 32/32/8 31/30/8
usemtl マテリアル.201
f 34/33/9 35/34/9 33/35/9
f 34/33/9 36/36/9 35/34/9
usemtl マテリアル.202
f 38/37/10 39/38/10 37/39/10
f 38/37/10 40/40/10 39/38/10
usemtl マテリアル.203
f 42/41/11 43/42/11 41/43/11
f 42/41/11 44/44/11 43/42/11
usemtl マテリアル.204
f 45/45/12 48/46/12 47/47/12
f 45/45/12 46/48/12 48/46/12
usemtl マテリアル.213
f 49/49/13 52/50/13 51/51/13
f 49/49/13 50/52/13 52/50/13
usemtl マテリアル.214
f 54/53/14 55/54/14 53/55/14
f 54/53/14 56/56/14 55/54/14
usemtl マテリアル.215
f 58/57/15 59/58/15 57/59/15
f 58/57/15 60/60/15 59/58/15
usemtl マテリアル.216
f 62/61/16 63/62/16 61/63/16
f 62/61/16 64/64/16 63/62/16
usemtl マテリアル.217
f 66/65/17 67/66/17 65/67/17
f 66/65/17 68/68/17 67/66/17
usemtl マテリアル.218
f 70/69/18 71/70/18 69/71/18
f 70/69/18 72/72/18 71/70/18
usemtl マテリアル.219
f 74/73/19 75/74/19 73/75/19
f 74/73/19 76/76/19 75/74/19
usemtl マテリアル.220
f 77/77/20 80/78/20 79/79/20
f 77/77/20 78/80/20 80/78/20
usemtl マテリアル.221
f 82/81/21 83/82/21 81/83/21
f 82/81/21 84/84/21 83/82/21
usemtl マテリアル.222
f 86/85/22 87/86/22 85/87/22
f 86/85/22 88/88/22 87/86/22
usemtl マテリアル.223
f 90/89/23 91/90/23 89/91/23
f 90/89/23 92/92/23 91/90/23
usemtl マテリアル.224
f 93/93/24 96/94/24 95/95/24
f 93/93/24 94/96/24 96/94/24
usemtl マテリアル.225
f 97/97/25 100/98/25 99/99/25
f 97/97/25 98/100/25 100/98/25
usemtl マテリアル.226
f 102/101/26 103/102/26 101/103/26
f 102/101/26 104/104/26 103/102/26
usemtl マテリアル.227
f 105/105/27 108/106/27 107/107/27
f 105/105/27 106/108/27 108/106/27
usemtl マテリアル.228
f 110/109/28 111/110/28 109/111/28
f 110/109/28 112/112/28 111/110/28
usemtl マテリアル.229
f 114/113/29 115/114/29 113/115/29
f 114/113/29 116/116/29 115/114/29
usemtl マテリアル.230
f 118/117/30 119/118/30 117/119/30
f 118/117/30 120/120/30 119/118/30
usemtl マテリアル.231
f 121/121/31 124/122/31 123/123/31
f 121/121/31 122/124/31 124/122/31
usemtl マテリアル.232
f 125/125/32 128/126/32 127/127/32
f 125/125/32 126/128/32 128/126/32
usemtl マテリアル.233
f 130/129/33 131/130/33 129/131/33
f 130/129/33 132/132/33 131/130/33
usemtl マテリアル.234
f 134/133/34 135/134/34 133/135/34
f 134/133/34 136/136/34 135/134/34
usemtl マテリアル.235
f 138/137/35 139/138/35 137/139/35
f 138/137/35 140/140/35 139/138/35
usemtl マテリアル.236
f 142/141/36 143/142/36 141/143/36
f 142/141/36 144/144/36 143/142/36
usemtl マテリアル.237
f 145/145/37 148/146/37 147/147/37
f 145/145/37 146/148/37 148/146/37
usemtl マテリアル.238
f 149/149/38 152/150/38 151/151/38
f 149/149/38 150/152/38 152/150/38
usemtl マテリアル.239
f 154/153/39 155/154/39 153/155/39
f 154/153/39 156/156/39 155/154/39
usemtl マテリアル.240
f 157/157/40 160/158/40 159/159/40
f 157/157/40 158/160/40 160/158/40
usemtl マテリアル.241
f 161/161/41 164/162/41 163/163/41
f 161/161/41 162/164/41 164/162/41
usemtl マテリアル.242
f 166/165/42 167/166/42 165/167/42
f 166/165/42 168/168/42 167/166/42
usemtl マテリアル.243
f 169/169/43 172/170/43 171/171/43
f 169/169/43 170/172/43 172/170/43
usemtl マテリアル.244
f 174/173/44 175/174/44 173/175/44
f 174/173/44 176/176/44 175/174/44
usemtl マテリアル.245
f 178/177/45 179/178/45 177/179/45
f 178/177/45 180/180/45 179/178/45
usemtl マテリアル.246
f 181/181/46 184/182/46 183/183/46
f 181/181/46 182/184/46 184/182/46
usemtl マテリアル.247
f 186/185/47 187/186/47 185/187/47
f 186/185/47 188/188/47 187/186/47
usemtl マテリアル.248
f 189/189/48 192/190/48 191/191/48
f 189/189/48 190/192/48 192/190/48
usemtl マテリアル.249
f 194/193/49 195/194/49 193/195/49
f 194/193/49 196/196/49 195/194/49
usemtl マテリアル.250
f 198/197/50 199/198/50 197/199/50
f 198/197/50 200/200/50 199/198/50
usemtl マテリアル.251
f 202/201/51 203/202/51 201/203/51
f 202/201/51 204/204/51 203/202/51
usemtl マテリアル.252
f 205/205/52 208/206/52 207/207/52
f 205/205/52 206/208/52 208/206/52
usemtl マテリアル.253
f 210/209/53 211/210/53 209/211/53
f 210/209/53 212/212/53 211/210/53
usemtl マテリアル.254
f 213/213/54 216/214/54 215/215/54
f 213/213/54 214/216/54 216/214/54
usemtl マテリアル.255
f 218/217/55 219/218/55 217/219/55
f 218/217/55 220/220/55 219/218/55
usemtl マテリアル.256
f 222/221/56 223/222/56 221/223/56
f 222/221/56 224/224/56 223/222/56
usemtl マテリアル.257
f 226/225/57 227/226/57 225/227/57
f 226/225/57 228/228/57 227/226/57
usemtl マテリアル.258
f 230/229/58 231/230/58 229/231/58
f 230/229/58 232/232/58 231/230/58
usemtl マテリアル.259
f 234/233/59 235/234/59 233/235/59
f 234/233/59 236/236/59 235/234/59
usemtl マテリアル.260
f 237/237/60 240/238/60 239/239/60
f 237/237/60 238/240/60 240/238/60
usemtl マテリアル.261
f 241/241/61 244/242/61 243/243/61
f 241/241/61 242/244/61 244/242/61
usemtl マテリアル.262
f 245/245/62 248/246/62 247/247/62
f 245/245/62 246/248/62 248/246/62
usemtl マテリアル.263
f 250/249/63 251/250/63 249/251/63
f 250/249/63 252/252/63 251/250/63
usemtl マテリアル.264
f 254/253/64 255/254/64 253/255/64
f 254/253/64 256/256/64 255/254/64
usemtl マテリアル.265
f 258/257/65 259/258/65 257/259/65
f 258/257/65 260/260/65 259/258/65
usemtl マテリアル.266
f 262/261/66 263/262/66 261/263/66
f 262/261/66 264/264/66 263/262/66
usemtl マテリアル.267
f 266/265/67 267/266/67 265/267/67
f 266/265/67 268/268/67 267/266/67
usemtl マテリアル.268
f 270/269/68 271/270/68 269/271/68
f 270/269/68 272/272/68 271/270/68
