# Blender v3.1.2 OBJ File: ''
# www.blender.org
mtllib SkyIsland1.mtl
o Set_of_Floating_Islands.002
v 1.132661 -0.000007 -0.548492
v 0.866961 -0.000007 -0.755992
v -0.793639 -0.000007 0.937808
v -1.424639 -0.000007 0.713608
v -1.225339 -0.000007 0.838108
v 1.082761 -0.000007 0.655508
v 1.265461 -0.000007 0.472808
v -1.059339 -0.000007 -0.481992
v -0.909839 -0.000007 -0.722792
v -1.208739 -0.000007 -0.241192
v -1.532639 -0.000007 -0.058592
v -1.856439 -0.000007 0.124108
v -1.798239 -0.000007 0.240308
v 0.551461 -0.000007 0.780008
v -0.386839 -0.000007 0.921108
v -1.740139 -0.000007 0.356608
v -1.682039 -0.000007 0.472808
v -1.623939 -0.000007 0.589008
v -1.009539 -0.000007 0.887908
v 1.423261 -0.000007 -0.025392
v 1.410761 -0.000007 -0.183092
v 1.398261 -0.000007 -0.340892
v 0.468361 -0.487407 -0.830692
v 1.434161 -0.341907 0.132408
v 1.420761 -0.362407 -0.025392
v -1.431139 -0.447507 0.713608
v -1.232739 -0.466207 0.838108
v -1.626339 -0.361707 0.589008
v -1.018639 -0.502707 0.887908
v -0.800239 -0.449807 0.937808
v -1.742039 -0.351107 0.356608
v -0.388239 -0.340407 0.921108
v 0.020061 -0.381107 0.904508
v -1.082739 -0.683907 -0.481992
v -1.083839 -0.828807 -0.481992
v -1.246739 -1.110807 -0.241192
v -0.915939 -0.317907 -0.722792
v -0.916439 -0.449807 -0.722792
v 1.408361 -0.361307 -0.183092
v 1.396961 -0.339307 -0.340892
v 0.086061 -0.318707 -0.905492
v -0.411739 -0.310907 -0.814092
v -1.684539 -0.364307 0.472808
v 1.124561 -0.481607 -0.548492
v 0.858961 -0.479707 -0.755992
v 1.262661 -0.369407 0.472808
v 1.447861 -0.316207 0.290108
v 0.543061 -0.487407 0.780008
v 1.079361 -0.383607 0.655508
v -1.070039 -0.126807 -0.481992
v -0.912639 -0.211907 -0.816648
v -1.245139 -0.958107 -0.241192
v -1.548739 -0.531807 -0.058592
v -1.540039 -0.300207 -0.058592
v -1.225539 -0.126807 -0.241192
v -1.970157 -0.096374 0.151337
v 1.149061 -0.664507 -0.293092
v -1.063039 -1.177007 0.545408
v -0.869439 -1.297007 0.522608
v -1.466239 -0.619407 0.520508
v 0.450961 -1.397107 -0.428092
v -0.420639 -0.893107 0.487308
v 0.017061 -0.723307 0.452008
v 0.488261 -1.396607 0.377308
v 0.013061 -1.229807 -0.000492
v -1.527239 -0.766207 0.134508
v -1.264439 -1.397107 0.028608
v -1.264239 -1.305707 0.298408
v -1.103639 -1.508307 -0.139492
v -0.927539 -1.297007 -0.307692
v -0.925139 -1.859207 0.107508
v -1.100039 -1.695307 0.203008
v 1.220161 -0.565707 0.217508
v 1.002761 -0.860507 0.302608
v 0.934161 -1.220807 -0.050292
v 1.180461 -0.703207 -0.037792
v 0.044461 -0.847007 -0.452992
v -0.426439 -0.752107 -0.380292
v -0.441839 -1.209007 0.053508
v 0.453961 -2.119407 -0.025392
v 0.888961 -0.983407 -0.403192
v -1.249339 -0.904007 0.568308
v 0.476661 -0.000007 -0.830692
v -0.411739 -0.000007 -0.814092
v 0.086461 -0.000007 -0.905492
v 1.448161 -0.000007 0.290108
v 0.020061 -0.000007 0.904508
v 1.435661 -0.000007 0.132408
v -1.799139 -0.329007 0.240308
v -1.856439 -0.312107 0.124108
v -1.549739 -0.672007 -0.058592
v -1.499239 -0.745407 0.327508
v -1.342965 -0.139373 0.899053
v 1.377538 -0.086558 0.498410
v -1.964575 -0.064516 0.243415
v 1.520971 -0.082739 -0.047992
v 1.507385 -0.082139 -0.220949
v 1.177846 -0.094306 0.698787
v -0.424709 -0.070736 1.047932
v 1.229733 -0.147775 -0.621703
v 1.549342 -0.057532 0.298033
v 0.020069 -0.092942 1.029726
v -1.838649 -0.083776 0.498410
v 0.595356 -0.150940 0.893180
v -1.775195 -0.082357 0.625852
v -0.451117 -0.054640 -0.913000
v -0.871452 -0.130425 1.066248
v 0.513788 -0.150940 -0.931206
v 1.494345 -0.070135 -0.394017
v -1.108409 -0.159288 1.011520
v -1.559953 -0.129170 0.762508
v 1.535047 -0.071554 0.125076
v -1.901721 -0.076574 0.370967
v 0.939852 -0.146738 -0.849279
v 0.092307 -0.058896 -1.013243
vt 0.155099 0.580312
vt 0.132483 0.573934
vt 0.103729 0.543169
vt 0.170288 0.018926
vt 0.198816 0.015992
vt 0.244539 0.055643
vt 0.214283 0.943860
vt 0.174384 0.970114
vt 0.195113 0.949330
vt 0.426589 0.145004
vt 0.465417 0.211910
vt 0.408167 0.184019
vt 0.068144 0.539910
vt 0.099598 0.573011
vt 0.011356 0.381919
vt 0.043035 0.440244
vt 0.022841 0.462668
vt 0.040413 0.503308
vt 0.074993 0.512402
vt 0.084251 0.803967
vt 0.090836 0.782178
vt 0.150049 0.760932
vt 0.021124 0.837527
vt 0.027104 0.817644
vt 0.761946 0.883717
vt 0.713933 0.930649
vt 0.699732 0.870700
vt 0.207727 0.848908
vt 0.233711 0.937626
vt 0.803841 0.401080
vt 0.850158 0.372474
vt 0.845794 0.422008
vt 0.153632 0.916151
vt 0.164363 0.882000
vt 0.031646 0.103402
vt 0.005476 0.201632
vt 0.020905 0.091576
vt 0.763801 0.742434
vt 0.721330 0.672124
vt 0.771488 0.666112
vt 0.698942 0.594625
vt 0.599175 0.695269
vt 0.592969 0.621102
vt 0.000000 0.304450
vt 0.032636 0.368661
vt 0.962223 0.216698
vt 0.905220 0.287495
vt 0.911244 0.184259
vt 0.641518 0.359651
vt 0.560615 0.285668
vt 0.650218 0.286008
vt 0.142677 0.007023
vt 0.173941 0.003765
vt 0.058681 0.886916
vt 0.000000 0.851075
vt 0.143095 0.783852
vt 0.104921 0.907563
vt 0.058194 0.065571
vt 0.050036 0.049927
vt 0.771488 0.819601
vt 0.708542 0.812024
vt 0.228494 0.994981
vt 0.207744 1.000000
vt 0.155772 0.611491
vt 0.177714 0.586690
vt 0.180546 0.618115
vt 0.111365 0.009776
vt 0.084741 0.027740
vt 0.080062 0.012387
vt 0.771380 0.326822
vt 0.859114 0.312358
vt 0.811325 0.346552
vt 0.671749 0.167745
vt 0.634103 0.240700
vt 0.621279 0.201913
vt 0.877338 0.367276
vt 0.700852 0.741304
vt 0.523287 0.764817
vt 0.130976 0.604492
vt 0.842919 0.246173
vt 0.170733 0.860911
vt 0.567969 0.503647
vt 0.653144 0.515834
vt 0.484634 0.541304
vt 0.431676 0.522890
vt 0.181390 0.689266
vt 0.210183 0.725569
vt 0.248979 0.668500
vt 0.252708 0.745539
vt 0.436021 0.427846
vt 0.427748 0.340159
vt 0.522387 0.344488
vt 0.412525 0.503647
vt 0.612193 0.463640
vt 0.821333 0.114499
vt 0.906433 0.629422
vt 0.989639 0.695393
vt 0.989639 0.821088
vt 0.500356 0.720253
vt 0.484491 0.647449
vt 0.828639 0.614586
vt 0.880224 0.726601
vt 0.848428 0.866184
vt 0.535657 0.871739
vt 0.376004 0.791926
vt 0.600805 0.840486
vt 0.650564 0.891928
vt 0.697823 0.943215
vt 0.510248 0.099600
vt 0.516775 0.056949
vt 0.530531 0.042960
vt 0.732793 0.216866
vt 0.759854 0.252628
vt 0.585400 0.154083
vt 0.486259 0.177732
vt 0.493624 0.138279
vt 0.555749 0.097647
vt 0.311251 0.457194
vt 0.346076 0.442762
vt 0.341996 0.418140
vt 0.141777 0.021857
vt 0.746336 0.581538
vt 0.272045 0.515333
vt 0.285227 0.563143
vt 0.285504 0.520703
vt 0.293745 0.493130
vt 0.285113 0.482822
vt 0.361615 0.322364
vt 0.342748 0.406685
vt 0.342640 0.316738
vt 0.022216 0.297063
vt 0.933541 0.414445
vt 0.956638 0.364340
vt 0.962223 0.415128
vt 0.930804 0.361966
vt 0.904389 0.362909
vt 0.594329 0.092970
vt 0.541909 0.028028
vt 0.590915 0.503956
vt 0.698614 0.510331
vt 0.674015 0.516031
vt 0.435348 0.271312
vt 0.964714 0.531100
vt 0.880224 0.503647
vt 0.880224 0.723137
vt 0.771489 0.704143
vt 0.911114 0.000000
vt 0.759854 0.490313
vt 0.253165 0.584171
vt 0.251183 0.548196
vt 0.231460 0.586577
vt 0.266761 0.474502
vt 0.205195 0.000000
vt 0.373083 0.418403
vt 0.477208 0.015377
vt 0.342547 0.226770
vt 0.904551 0.415571
vt 0.462968 0.059178
vt 0.290248 0.095315
vt 0.333235 0.156714
vt 0.316390 0.161053
vt 0.875201 0.418560
vt 0.248999 0.990672
vt 0.252708 0.932695
vt 0.200347 0.593065
vt 0.304625 0.084814
vt 0.759854 0.380776
vt 0.372793 0.325878
vt 0.384353 0.252366
vt 0.361615 0.224364
vt 0.254545 0.041607
vt 0.443224 0.100810
vt 0.059024 0.476330
vt 0.222965 0.599460
vt 0.205328 0.624524
vt 0.764017 0.943659
vt 0.239340 0.853745
vt 0.026930 0.200223
vt 0.946282 0.290580
vt 0.113252 0.024809
vt 0.319911 0.467950
vt 0.252012 0.548249
vt 0.359782 0.411718
vt 0.234709 0.624524
vt 0.911922 0.503647
vt 0.361615 0.569295
vt 0.304756 0.440602
vt 0.244874 0.536988
vt 0.492068 0.000000
vt 0.361615 0.502123
vt 0.241926 0.611591
vn -0.0000 1.0000 0.0000
vn -0.8229 -0.5676 0.0231
vn -0.9978 0.0242 0.0621
vn -0.8187 -0.4756 0.3218
vn -0.2955 0.1341 0.9459
vn -0.1348 -0.3791 0.9155
vn -0.2148 0.2499 0.9441
vn -0.5197 0.1927 0.8323
vn -0.3931 0.6519 0.6484
vn -0.5329 0.1627 0.8304
vn 0.0540 0.3233 0.9448
vn -0.0518 0.7524 0.6567
vn 0.0470 0.0977 0.9941
vn -0.2429 0.6263 0.7408
vn -0.4171 0.1468 0.8969
vn -0.8333 0.0083 -0.5528
vn -0.8317 0.0063 -0.5552
vn -0.8321 0.0067 -0.5547
vn -0.8258 0.0056 -0.5639
vn -0.8234 0.0031 -0.5675
vn -0.8241 0.0038 -0.5665
vn -0.8265 0.0063 -0.5630
vn 0.6318 0.1273 -0.7647
vn 0.6683 -0.3572 -0.6525
vn 0.6132 -0.3433 -0.7114
vn -0.8262 -0.5424 0.1522
vn -0.7827 -0.5252 0.3340
vn -0.7886 -0.5673 0.2373
vn 0.7068 0.2356 0.6670
vn 0.7229 -0.3263 0.6090
vn 0.7153 0.2453 0.6543
vn -0.5008 -0.1127 -0.8582
vn -0.4940 -0.0137 -0.8693
vn -0.5109 0.0034 -0.8596
vn 0.2039 0.5830 0.7865
vn 0.2387 0.1438 0.9604
vn 0.2974 0.1506 0.9428
vn 0.1829 0.1150 -0.9764
vn 0.0818 -0.3452 -0.9350
vn 0.1582 0.3372 -0.9281
vn -0.1419 -0.6332 -0.7609
vn -0.2529 -0.6793 -0.6889
vn -0.2945 -0.6935 -0.6575
vn 0.0241 0.2499 0.9680
vn 0.0413 0.8600 0.5086
vn 0.7946 -0.5759 -0.1924
vn 0.8373 -0.4302 -0.3375
vn 0.8449 -0.3254 -0.4245
vn 0.0314 -0.6846 0.7282
vn 0.3553 -0.7538 0.5528
vn -0.1064 -0.7362 0.6683
vn 0.6347 0.7713 -0.0488
vn 0.9631 0.2545 -0.0877
vn 0.9689 0.2364 -0.0726
vn -0.8514 0.0190 -0.5241
vn -0.9022 0.0637 -0.4267
vn -0.8867 0.1001 -0.4513
vn -0.5054 0.0134 -0.8628
vn -0.3830 0.0153 -0.9236
vn -0.5099 0.0192 -0.8600
vn -0.8676 0.0282 -0.4965
vn 0.4692 0.7412 0.4801
vn 0.6867 0.2526 0.6816
vn 0.6073 0.1677 -0.7766
vn 0.5775 -0.3402 -0.7421
vn -0.8606 0.2849 0.4222
vn -0.9450 0.0108 0.3269
vn -0.8627 0.2752 0.4242
vn -0.4106 0.8844 0.2221
vn 0.9564 0.2830 -0.0720
vn 0.5321 0.8426 -0.0832
vn 0.9373 0.3333 -0.1021
vn 0.1840 -0.3030 -0.9351
vn 0.1867 0.1357 -0.9730
vn 0.5911 -0.5628 0.5778
vn 0.8222 -0.5075 0.2578
vn 0.4226 -0.7012 0.5742
vn -0.5908 -0.4116 0.6939
vn -0.2013 -0.5870 0.7842
vn -0.5018 -0.6366 0.5856
vn 0.6314 -0.6836 0.3661
vn 0.7289 -0.6821 0.0584
vn 0.7513 -0.6237 -0.2159
vn 0.0003 -0.4047 -0.9144
vn -0.3015 0.7072 0.6395
vn -0.4922 0.2010 0.8470
vn -0.0736 -0.4529 0.8885
vn -0.1789 -0.4164 0.8914
vn -0.1859 -0.4137 0.8912
vn 0.8002 -0.4905 0.3452
vn -0.8082 -0.5178 -0.2804
vn -0.6587 -0.5958 0.4595
vn -0.6958 -0.7153 0.0653
vn -0.2919 -0.4177 -0.8604
vn -0.3096 -0.4208 -0.8527
vn -0.4977 -0.3788 -0.7803
vn -0.7797 -0.4032 -0.4791
vn -0.8995 -0.4136 0.1408
vn -0.0185 -0.7974 0.6032
vn 0.2802 -0.4028 0.8713
vn 0.6300 -0.5248 0.5725
vn 0.7922 -0.5055 0.3420
vn 0.5592 -0.5166 0.6483
vn 0.5622 -0.5141 0.6478
vn 0.5337 -0.5359 0.6542
vn -0.4179 -0.3827 0.8240
vn -0.6178 -0.5005 0.6064
vn -0.7516 -0.5638 0.3424
vn -0.2567 -0.7351 -0.6275
vn -0.1049 -0.6762 -0.7292
vn -0.0536 -0.6511 -0.7571
vn 0.3326 -0.4185 -0.8452
vn 0.5496 -0.5849 -0.5965
vn -0.5196 -0.4177 -0.7453
vn 0.6524 -0.3670 -0.6631
vn 0.6117 -0.6179 -0.4940
vn 0.7434 -0.4902 -0.4550
vn 0.5732 -0.8163 -0.0720
vn 0.8337 -0.5056 -0.2221
vn -0.5321 -0.7975 0.2843
vn -0.1074 -0.5836 0.8049
vn -0.8074 -0.3378 -0.4837
vn -0.8991 -0.4375 0.0135
vn -0.8023 -0.5190 -0.2948
vn -0.5667 -0.4449 0.6935
vn -0.4563 -0.3789 0.8051
vn -0.2761 -0.4966 0.8229
vn -0.4189 -0.6589 0.6248
vn -0.6476 -0.3809 0.6599
vn -0.6858 -0.3150 0.6561
vn -0.8551 0.1673 -0.4907
vn 0.6248 0.7786 -0.0590
vn -0.1721 0.2945 -0.9400
vn -0.3430 -0.4038 -0.8481
vn -0.0452 0.3434 -0.9381
vn 0.7303 -0.3785 -0.5686
vn 0.4242 -0.7071 -0.5657
vn 0.8318 -0.3668 -0.4166
vn -0.5235 0.0870 -0.8476
vn -0.4915 0.0041 -0.8709
vn -0.5173 0.1072 -0.8491
vn -0.9054 -0.3914 0.1644
vn -0.9059 -0.3962 0.1496
vn -0.9063 -0.4049 0.1214
vn -0.8413 0.1211 -0.5269
vn -0.8408 0.0613 -0.5379
vn -0.8376 0.1310 -0.5303
vn -0.8477 0.3132 0.4282
vn -0.4312 0.8768 0.2130
vn -0.2640 0.4891 -0.8313
vn -0.5287 0.7588 -0.3804
vn 0.2098 0.7558 0.6203
vn 0.2474 0.2583 0.9339
vn 0.9579 0.2773 -0.0749
vn 0.9324 -0.3456 -0.1061
vn 0.9656 0.2553 -0.0492
vn 0.8000 -0.5653 -0.2012
vn 0.7793 -0.6258 -0.0319
vn 0.8302 -0.5458 -0.1132
vn -0.7384 -0.4933 0.4598
vn -0.7718 -0.5783 0.2643
vn -0.7899 -0.4845 0.3759
vn -0.6819 -0.4804 0.5516
vn -0.7369 -0.5966 -0.3180
vn -0.7386 -0.5950 -0.3170
vn -0.7434 -0.5904 -0.3145
vn -0.5096 0.0046 -0.8604
vn 0.3697 -0.6224 -0.6899
vn 0.0643 -0.7007 -0.7105
vn -0.0891 -0.6384 0.7645
vn 0.3741 -0.7320 0.5694
vn -0.2151 -0.7086 0.6720
vn 0.0854 -0.4828 0.8716
vn -0.7454 -0.4927 0.4491
vn -0.7335 -0.5690 0.3717
vn 0.5848 -0.5067 -0.6334
vn -0.0815 -0.6074 -0.7902
vn 0.5827 -0.7101 -0.3952
vn -0.5112 0.0042 -0.8594
vn 0.7493 -0.6189 0.2355
vn 0.7971 -0.6028 -0.0367
vn 0.6994 -0.7058 0.1125
vn -0.8336 0.0087 -0.5523
vn -0.5105 0.0053 -0.8599
vn 0.8983 -0.4297 0.0917
vn -0.7556 -0.3458 0.5564
vn -0.6164 -0.4837 -0.6213
vn 0.1021 -0.5993 -0.7940
vn 0.4252 -0.3563 -0.8320
vn 0.4730 -0.3098 -0.8248
vn 0.7642 -0.5386 0.3549
vn -0.8275 -0.3991 -0.3950
vn 0.8475 -0.4449 0.2895
vn 0.5489 -0.4266 0.7189
vn -0.6554 -0.3436 0.6726
vn -0.4039 0.1194 -0.9070
vn -0.4820 0.0193 -0.8760
vn -0.3734 0.1682 -0.9123
vn -0.0034 1.0000 0.0026
vn -0.0037 1.0000 -0.0010
vn 0.0034 0.9985 -0.0541
vn 0.6094 0.7927 -0.0166
vn 0.1693 -0.3724 0.9125
vn 0.2143 -0.3386 0.9162
vn -0.7957 -0.4764 0.3740
vn -0.7826 -0.4745 0.4030
vn -0.0822 0.8744 -0.4783
vn 0.9382 -0.3442 -0.0369
vn 0.9395 -0.3372 -0.0604
vn -0.5897 -0.3744 0.7156
vn -0.5560 -0.3418 0.7577
vn 0.1503 0.5802 -0.8005
vn 0.2038 0.6111 -0.7649
vn 0.9350 -0.3530 -0.0356
vn -0.8100 -0.4853 0.3292
vn -0.4378 0.8695 -0.2288
vn 0.4876 0.6169 -0.6178
vn 0.4816 0.6229 -0.6165
vn 0.6897 -0.3338 0.6426
vn 0.6798 -0.3259 0.6570
vn 0.9382 -0.3377 -0.0756
vn 0.0566 -0.4007 0.9145
vn 0.0893 0.8768 -0.4725
vn 0.3118 -0.2763 0.9091
vn 0.4258 0.7773 0.4632
vn 0.3219 0.7454 -0.5838
vn -0.3317 -0.3614 0.8714
vn -0.1916 -0.3786 0.9055
vn 0.1293 -0.3450 0.9296
vn -0.5243 -0.3292 0.7853
vn -0.1890 0.6925 0.6962
vn -0.1522 0.7386 0.6568
vn -0.4691 0.8810 0.0613
vn -0.1142 -0.2728 -0.9553
vn -0.1043 -0.2844 -0.9530
vn -0.1782 0.0007 -0.9840
vn -0.4072 0.6371 0.6544
vn 0.5693 0.3121 -0.7606
vn -0.8255 -0.5052 0.2516
vn -0.4855 -0.1438 -0.8623
vn 0.1779 0.6225 0.7622
vn 0.1258 -0.2978 -0.9463
vn -0.1030 -0.6145 -0.7822
vn 0.0243 0.8028 0.5958
vn 0.7303 -0.6803 -0.0615
vn 0.4646 -0.6796 0.5678
vn 0.4912 0.7203 0.4898
vn 0.5840 0.8106 -0.0437
vn -0.2652 -0.4367 0.8596
vn 0.5260 -0.6424 0.5574
vn -0.0617 -0.4566 0.8875
vn -0.8577 -0.4940 0.1424
vn -0.2209 -0.2598 0.9400
vn -0.3056 -0.7488 -0.5882
vn 0.5002 -0.8270 -0.2565
vn -0.9393 -0.3017 -0.1634
vn -0.3024 -0.7525 0.5851
vn -0.8533 0.1101 -0.5097
vn -0.1732 -0.3737 -0.9112
vn 0.3043 -0.7086 -0.6366
vn -0.9036 -0.3812 0.1953
vn -0.8439 0.0512 -0.5341
vn -0.4265 0.8791 0.2126
vn 0.9318 -0.3433 -0.1180
vn 0.7555 -0.6461 -0.1087
vn -0.7322 -0.6010 -0.3204
vn 0.4601 -0.6437 0.6115
vn 0.0133 -0.5466 0.8373
vn -0.0494 -0.4500 -0.8916
vn 0.8391 -0.5406 0.0599
vn 0.0132 -0.6468 -0.7626
vn 0.0005 1.0000 -0.0008
vn 0.0011 1.0000 0.0012
vn 0.0006 1.0000 0.0023
vn 0.0024 1.0000 -0.0021
vn -0.0031 1.0000 -0.0021
vn -0.0009 1.0000 -0.0071
vn -0.0074 1.0000 0.0043
vn -0.0000 1.0000 -0.0009
vn 0.0007 1.0000 -0.0016
vn 0.0027 1.0000 0.0001
vn 0.0004 1.0000 -0.0003
vn -0.0191 0.9997 0.0149
vn -0.0168 0.9998 0.0146
vn 0.0006 0.9999 0.0156
vn 0.0012 1.0000 -0.0008
vn -0.0019 1.0000 0.0004
vn -0.0023 1.0000 -0.0037
vn 0.6338 0.7717 -0.0537
vn -0.0024 -0.3985 0.9172
usemtl None.002
s 1
f 17/1/1 18/2/1 4/3/1
f 21/4/1 22/5/1 1/6/1
f 89/7/2 56/8/3 90/9/4
f 110/10/5 30/11/6 107/12/7
f 93/13/8 4/3/9 111/14/10
f 99/15/11 3/16/12 107/17/13
f 110/18/5 5/19/14 93/13/15
f 34/20/16 35/21/17 36/22/18
f 37/23/19 38/24/20 35/21/21
f 35/21/21 34/20/22 37/23/19
f 100/25/23 40/26/24 44/27/25
f 66/28/26 31/29/27 89/7/28
f 94/30/29 47/31/30 101/32/31
f 90/9/32 54/33/33 53/34/34
f 6/35/35 104/36/36 98/37/37
f 108/38/38 41/39/39 115/40/40
f 42/41/41 77/42/42 78/43/43
f 102/44/44 15/45/45 99/15/11
f 81/46/46 76/47/47 75/48/48
f 65/49/49 62/50/50 79/51/51
f 21/4/52 96/52/53 97/53/54
f 34/20/55 50/54/56 51/55/57
f 50/54/56 34/20/55 52/56/58
f 53/34/59 54/33/60 55/57/61
f 7/58/62 98/37/63 94/59/29
f 114/60/64 44/27/25 45/61/65
f 89/7/2 113/62/66 95/63/67
f 103/64/68 16/65/69 113/66/66
f 112/67/70 86/68/71 101/69/72
f 45/61/73 108/38/38 114/60/74
f 49/70/75 73/71/76 46/72/77
f 68/73/78 59/74/79 58/75/80
f 47/31/81 73/71/82 24/76/83
f 41/39/84 23/77/84 61/78/84
f 55/57/61 52/56/58 53/34/59
f 111/14/10 18/2/85 105/79/86
f 30/11/87 58/75/88 59/74/89
f 73/71/90 74/80/90 75/48/90
f 91/81/91 89/7/92 90/9/93
f 35/82/94 38/83/94 70/84/94
f 70/84/95 69/85/95 35/82/95
f 36/22/96 35/21/96 69/86/96
f 69/86/97 67/87/97 36/22/97
f 72/88/98 68/89/98 67/87/98
f 48/90/99 33/91/99 63/92/99
f 49/93/100 48/90/100 64/94/100
f 64/95/101 74/80/102 49/70/75
f 62/96/103 59/97/104 71/98/105
f 64/94/106 63/92/107 65/49/108
f 78/43/109 65/99/110 79/100/111
f 78/43/112 70/84/112 38/83/112
f 70/84/113 78/43/113 79/100/113
f 77/101/114 61/102/114 80/103/114
f 75/104/115 80/105/115 61/78/115
f 61/78/116 81/106/116 75/104/116
f 57/107/117 40/26/118 39/108/119
f 26/109/120 28/110/120 43/111/120
f 72/112/121 71/113/121 59/74/121
f 36/22/122 66/28/123 91/81/124
f 58/75/125 82/114/125 68/73/125
f 82/114/126 58/75/126 29/115/126
f 29/115/127 27/116/127 82/114/127
f 27/116/128 60/117/129 82/114/130
f 50/118/56 9/119/131 51/120/57
f 20/121/132 112/67/70 96/52/53
f 115/40/133 42/41/134 106/122/135
f 81/106/136 44/27/137 57/107/138
f 55/123/139 11/124/140 10/125/141
f 68/89/142 66/28/143 67/87/144
f 10/126/145 50/118/146 55/127/147
f 105/79/148 17/1/149 103/64/68
f 106/128/135 9/129/150 84/130/151
f 104/36/36 87/131/152 102/44/153
f 97/132/154 40/133/155 109/134/156
f 76/47/157 39/135/158 25/136/159
f 92/137/160 43/111/161 31/138/162
f 60/117/163 26/109/163 43/111/163
f 69/86/164 72/88/165 67/87/166
f 91/81/167 90/9/32 53/34/34
f 34/139/168 51/140/168 37/141/168
f 78/43/169 38/83/169 42/41/169
f 32/142/170 63/92/171 33/91/172
f 62/96/103 30/143/173 59/97/104
f 82/114/174 60/117/175 92/137/160
f 79/100/176 69/85/177 70/84/178
f 52/56/179 91/81/167 53/34/34
f 73/71/180 25/136/181 24/76/182
f 36/22/18 52/56/183 34/20/16
f 36/22/184 91/81/167 52/56/179
f 75/48/185 76/47/185 73/71/185
f 68/73/186 82/114/186 92/137/186
f 61/102/187 77/101/187 41/144/187
f 23/77/188 81/106/189 61/78/190
f 71/98/191 79/145/191 62/96/191
f 80/103/192 65/146/192 77/101/192
f 80/147/193 75/48/193 74/80/193
f 80/147/194 74/80/194 64/95/194
f 80/148/195 64/94/195 65/49/195
f 12/149/196 54/150/197 56/151/198
f 4/3/199 5/19/200 10/152/201
f 22/5/202 97/53/154 109/153/156
f 104/154/36 33/91/203 48/90/204
f 105/155/148 43/111/205 28/110/206
f 85/156/207 106/128/135 84/130/151
f 96/157/53 24/76/208 25/136/209
f 111/158/10 28/110/210 26/109/211
f 2/159/212 108/160/38 83/161/213
f 47/31/214 112/162/70 101/32/72
f 103/163/68 31/29/215 43/164/205
f 13/165/216 113/66/66 16/65/69
f 1/6/217 114/166/64 2/159/218
f 46/72/219 98/167/63 49/70/220
f 39/135/221 96/157/53 25/136/209
f 32/142/222 102/168/44 99/169/11
f 83/161/213 115/170/40 85/156/223
f 49/93/224 104/154/36 48/90/204
f 86/68/225 94/59/29 101/69/31
f 22/5/226 100/171/23 1/6/217
f 110/10/5 27/116/227 29/115/228
f 32/142/222 107/12/13 30/11/229
f 93/172/8 26/109/211 27/116/230
f 19/173/231 107/17/7 3/16/232
f 12/174/233 95/175/67 13/165/216
f 51/140/234 106/122/135 37/141/235
f 37/141/235 42/41/134 38/83/236
f 89/7/2 95/63/67 56/8/3
f 110/10/5 29/115/228 30/11/6
f 93/13/8 5/19/237 4/3/9
f 99/15/11 15/45/45 3/16/12
f 110/18/5 19/173/231 5/19/14
f 100/25/23 109/176/238 40/26/24
f 66/28/26 92/177/239 31/29/27
f 94/30/29 46/72/219 47/31/30
f 90/9/32 56/8/240 54/33/33
f 6/35/35 14/178/241 104/36/36
f 108/38/38 23/77/242 41/39/39
f 42/41/41 41/39/243 77/42/42
f 102/44/44 87/131/244 15/45/45
f 81/46/46 57/179/245 76/47/47
f 65/49/49 63/92/246 62/50/50
f 21/4/52 20/121/132 96/52/53
f 7/58/62 6/35/247 98/37/63
f 114/60/64 100/25/23 44/27/25
f 89/7/2 31/29/215 113/62/66
f 103/64/68 17/1/149 16/65/69
f 112/67/70 88/180/248 86/68/71
f 45/61/73 23/77/242 108/38/38
f 49/70/75 74/80/102 73/71/76
f 68/73/78 72/112/249 59/74/79
f 47/31/81 46/72/250 73/71/82
f 55/57/61 50/54/56 52/56/58
f 111/14/10 4/3/9 18/2/85
f 30/11/87 29/115/251 58/75/88
f 91/81/91 66/28/252 89/7/92
f 64/94/106 48/90/253 63/92/107
f 78/43/109 77/42/254 65/99/110
f 57/107/117 44/27/255 40/26/118
f 36/22/122 67/87/256 66/28/123
f 27/116/128 26/109/257 60/117/129
f 50/118/56 8/181/258 9/119/131
f 20/121/132 88/180/248 112/67/70
f 115/40/133 41/39/259 42/41/134
f 81/106/136 45/61/260 44/27/137
f 55/123/139 54/182/197 11/124/140
f 68/89/142 92/177/261 66/28/143
f 10/126/145 8/181/262 50/118/146
f 105/79/148 18/2/263 17/1/149
f 106/128/135 51/183/234 9/129/150
f 104/36/36 14/178/241 87/131/152
f 97/132/154 39/135/264 40/133/155
f 76/47/157 57/179/265 39/135/158
f 92/137/160 60/117/175 43/111/161
f 69/86/164 71/184/266 72/88/165
f 32/142/170 62/50/267 63/92/171
f 62/96/103 32/185/268 30/143/173
f 79/100/176 71/186/269 69/85/177
f 73/71/180 76/47/270 25/136/181
f 23/77/188 45/61/271 81/106/189
f 12/149/196 11/124/140 54/150/197
f 14/178/272 6/35/273 7/58/274
f 7/58/274 86/68/275 88/180/276
f 88/180/276 20/121/277 7/58/274
f 20/121/277 21/4/1 1/6/278
f 7/58/274 20/121/277 1/6/278
f 1/6/278 2/159/279 83/161/280
f 7/58/274 1/6/278 14/178/272
f 83/161/280 85/156/1 14/178/272
f 85/156/1 84/130/1 87/131/281
f 87/131/281 14/178/272 85/156/1
f 83/161/280 14/178/272 1/6/278
f 19/173/282 3/16/1 10/152/201
f 3/16/1 15/45/1 10/152/201
f 15/45/1 87/131/281 84/130/1
f 84/130/1 9/129/283 8/187/284
f 15/45/1 8/187/284 10/152/201
f 84/130/1 8/187/284 15/45/1
f 10/152/201 11/188/285 4/3/199
f 11/188/285 12/174/286 13/165/287
f 13/165/287 16/65/288 11/188/285
f 16/65/288 17/1/1 11/188/285
f 5/19/200 19/173/282 10/152/201
f 17/1/1 4/3/199 11/188/285
f 22/5/202 21/4/289 97/53/154
f 104/154/36 102/168/153 33/91/203
f 105/155/148 103/189/68 43/111/205
f 85/156/207 115/170/133 106/128/135
f 96/157/53 112/162/70 24/76/208
f 111/158/10 105/155/86 28/110/210
f 2/159/212 114/166/74 108/160/38
f 47/31/214 24/76/208 112/162/70
f 103/163/68 113/62/66 31/29/215
f 13/165/216 95/175/67 113/66/66
f 1/6/217 100/171/23 114/166/64
f 46/72/219 94/30/29 98/167/63
f 39/135/221 97/132/54 96/157/53
f 32/142/222 33/91/290 102/168/44
f 83/161/213 108/160/38 115/170/40
f 49/93/224 98/190/37 104/154/36
f 86/68/225 7/58/62 94/59/29
f 22/5/226 109/153/238 100/171/23
f 110/10/5 93/172/15 27/116/227
f 32/142/222 99/169/11 107/12/13
f 93/172/8 111/158/10 26/109/211
f 19/173/231 110/18/5 107/17/7
f 12/174/233 56/191/3 95/175/67
f 37/141/235 106/122/135 42/41/134
