# Blender v3.1.2 OBJ File: ''
# www.blender.org
mtllib CircleCollider.mtl
o 円
v 1.000000 -0.000000 -0.000000
v 0.980785 0.195090 -0.000000
v 0.923879 0.382683 -0.000000
v 0.831470 0.555570 -0.000000
v 0.707107 0.707107 -0.000000
v 0.555570 0.831470 -0.000000
v 0.382683 0.923879 -0.000000
v 0.195090 0.980785 0.000000
v 0.000000 1.000000 0.000000
v -0.195090 0.980785 0.000000
v -0.382683 0.923880 0.000000
v -0.555570 0.831470 0.000000
v -0.707107 0.707107 0.000000
v -0.831470 0.555570 0.000000
v -0.923879 0.382683 0.000000
v -0.980785 0.195090 0.000000
v -1.000000 -0.000000 0.000000
v -0.980785 -0.195090 0.000000
v -0.923880 -0.382683 0.000000
v -0.831469 -0.555570 0.000000
v -0.707107 -0.707107 0.000000
v -0.555570 -0.831469 0.000000
v -0.382683 -0.923879 0.000000
v -0.195090 -0.980785 0.000000
v 0.000000 -1.000000 0.000000
v 0.195090 -0.980785 -0.000000
v 0.382684 -0.923879 -0.000000
v 0.555570 -0.831470 -0.000000
v 0.707107 -0.707107 -0.000000
v 0.831470 -0.555570 -0.000000
v 0.923880 -0.382683 -0.000000
v 0.980785 -0.195090 -0.000000
vt 0.000000 0.000000
vt 0.000000 0.000000
vt 0.000000 0.000000
vt 0.000000 0.000000
vt 0.000000 0.000000
vt 0.000000 0.000000
vt 0.000000 0.000000
vt 0.000000 0.000000
vt 0.000000 0.000000
vt 0.000000 0.000000
vt 0.000000 0.000000
vt 0.000000 0.000000
vt 0.000000 0.000000
vt 0.000000 0.000000
vt 0.000000 0.000000
vt 0.000000 0.000000
vt 0.000000 0.000000
vt 0.000000 0.000000
vt 0.000000 0.000000
vt 0.000000 0.000000
vt 0.000000 0.000000
vt 0.000000 0.000000
vt 0.000000 0.000000
vt 0.000000 0.000000
vt 0.000000 0.000000
vt 0.000000 0.000000
vt 0.000000 0.000000
vt 0.000000 0.000000
vt 0.000000 0.000000
vt 0.000000 0.000000
vt 0.000000 0.000000
vt 0.000000 0.000000
vn -0.0000 0.0000 -1.0000
usemtl None
s off
f 19/1/1 11/2/1 3/3/1
f 3/3/1 2/4/1 31/5/1
f 2/4/1 1/6/1 31/5/1
f 1/6/1 32/7/1 31/5/1
f 31/5/1 30/8/1 29/9/1
f 29/9/1 28/10/1 27/11/1
f 27/11/1 26/12/1 25/13/1
f 25/13/1 24/14/1 27/11/1
f 24/14/1 23/15/1 27/11/1
f 23/15/1 22/16/1 21/17/1
f 21/17/1 20/18/1 23/15/1
f 20/18/1 19/1/1 23/15/1
f 19/1/1 18/19/1 17/20/1
f 17/20/1 16/21/1 15/22/1
f 15/22/1 14/23/1 13/24/1
f 13/24/1 12/25/1 11/2/1
f 11/2/1 10/26/1 7/27/1
f 10/26/1 9/28/1 7/27/1
f 9/28/1 8/29/1 7/27/1
f 7/27/1 6/30/1 5/31/1
f 5/31/1 4/32/1 3/3/1
f 31/5/1 29/9/1 3/3/1
f 29/9/1 27/11/1 3/3/1
f 19/1/1 17/20/1 15/22/1
f 15/22/1 13/24/1 19/1/1
f 13/24/1 11/2/1 19/1/1
f 7/27/1 5/31/1 11/2/1
f 5/31/1 3/3/1 11/2/1
f 27/11/1 23/15/1 19/1/1
f 3/3/1 27/11/1 19/1/1
