# Blender v3.1.2 OBJ File: 'BossHead.blend'
# www.blender.org
mtllib BossLeftArm.mtl
v -0.500000 -1.750000 0.500000
v -0.500000 0.000000 0.500000
v -0.500000 -1.750000 -0.500000
v -0.500000 0.000000 -0.500000
v 0.500000 -1.750000 0.500000
v 0.500000 0.000000 0.500000
v 0.500000 -1.750000 -0.500000
v 0.500000 0.000000 -0.500000
v -1.067118 -0.315662 0.700000
v -0.211383 0.262839 0.700000
v -1.067118 -0.315662 -0.700000
v -0.211383 0.262839 -0.700000
v 0.211383 -1.071397 0.700000
v 0.501284 -0.000066 0.700000
v 0.211383 -1.071397 -0.700000
v 0.501284 -0.000066 -0.700000
v -0.927868 -0.793530 -0.700000
v 0.144951 0.131387 -0.700000
v -0.927868 -0.793530 0.700000
v 0.144951 0.131387 0.700000
v -1.367118 -0.315662 -0.233333
v -1.367118 -0.315662 0.233333
v -0.411383 0.846541 0.233333
v -0.411383 0.846541 -0.233333
v 0.211383 -1.539266 0.233333
v 0.211383 -1.539266 -0.233333
v 0.501284 -0.000066 -0.233333
v 0.501284 -0.000066 0.233333
v 0.244951 0.331387 -0.233333
v 0.244951 0.331387 0.233333
v -1.227868 -1.261398 -0.233333
v -1.227868 -1.261398 0.233333
v -0.396319 0.137817 0.700000
v -0.396319 0.137817 -0.700000
v 0.438632 -0.231596 -0.700000
v 0.438632 -0.231596 0.700000
v -0.086901 -0.068501 0.700000
v -0.086901 -0.068501 -0.700000
v 0.438632 -0.231596 -0.233333
v 0.438632 -0.231596 0.233333
v -0.617931 0.294594 0.233333
v -0.617931 0.294594 -0.233333
v -1.738623 1.011010 0.000000
v -1.019142 0.410749 0.233333
v -1.019142 0.410749 -0.233333
v -0.796669 1.179193 0.000000
v 0.323117 0.065661 -0.700000
v -0.358242 -0.932464 0.700000
v -0.358242 -0.932464 -0.700000
v 0.323117 0.065661 0.700000
v 0.373117 0.165661 -0.233333
v 0.373117 0.165661 0.233333
v -0.508242 -1.400332 -0.233333
v -0.508242 -1.400332 0.233333
v 0.175866 -0.150048 0.700000
v 0.175866 -0.150048 -0.700000
v -0.905004 -2.079884 -0.233333
v -0.905004 -2.079884 0.233333
v -0.497291 -2.382201 -0.233333
v -0.497291 -2.382201 0.233333
vt 0.453888 0.824494
vt 0.562146 0.940289
vt 0.453888 0.940289
vt 0.851012 0.832539
vt 0.742754 0.643087
vt 0.851012 0.643087
vt 0.955112 0.635562
vt 0.846854 0.450962
vt 0.955112 0.450962
vt 0.846854 0.640414
vt 0.738596 0.450962
vt 0.742754 0.940797
vt 0.849733 0.832539
vt 0.849733 0.940797
vt 0.944181 0.799563
vt 0.851012 0.903276
vt 0.851012 0.795337
vt 0.268965 0.774748
vt 0.290280 0.807646
vt 0.274575 0.807646
vt 0.093179 0.850050
vt 0.112210 0.838082
vt 0.110077 0.857359
vt 0.279055 0.873442
vt 0.262158 0.906341
vt 0.262158 0.873442
vt 0.108976 0.720310
vt 0.087705 0.707266
vt 0.098830 0.696136
vt 0.504408 0.553078
vt 0.453888 0.632368
vt 0.453888 0.569125
vt 0.919409 0.695877
vt 0.880672 0.643087
vt 0.921118 0.643655
vt 0.940487 0.695235
vt 0.941341 0.643938
vt 0.690659 0.450962
vt 0.732440 0.507459
vt 0.684502 0.482851
vt 0.111109 0.739588
vt 0.092042 0.733687
vt 0.086673 0.889681
vt 0.107944 0.876637
vt 0.097798 0.900812
vt 0.580878 0.767997
vt 0.539098 0.824494
vt 0.532941 0.792605
vt 0.181923 0.732024
vt 0.149025 0.717160
vt 0.181923 0.717160
vt 0.921118 0.794770
vt 0.940487 0.745607
vt 0.941341 0.795053
vt 0.205340 0.893944
vt 0.219065 0.860725
vt 0.219065 0.893526
vt 0.880672 0.794203
vt 0.919409 0.746249
vt 0.160801 0.892749
vt 0.205340 0.861143
vt 0.605449 0.632368
vt 0.554929 0.553078
vt 0.605449 0.569125
vt 0.181923 0.835289
vt 0.149025 0.783656
vt 0.181923 0.783656
vt 0.279055 0.807646
vt 0.262158 0.840544
vt 0.262158 0.807646
vt 0.725516 0.845169
vt 0.699568 0.895689
vt 0.699568 0.845169
vt 0.290280 0.708952
vt 0.268965 0.741850
vt 0.274575 0.708952
vt 0.287739 0.774748
vt 0.605449 0.693608
vt 0.710021 0.693608
vt 0.710021 0.693608
vt 0.631154 0.643087
vt 0.605449 0.895689
vt 0.605449 0.845169
vt 0.605449 0.794649
vt 0.486553 0.693485
vt 0.735518 0.570858
vt 0.638114 0.581971
vt 0.605449 0.946210
vt 0.489829 0.663881
vt 0.587035 0.641198
vt 0.583957 0.704597
vt 0.710021 0.744128
vt 0.631154 0.794649
vt 0.605449 0.744128
vt 0.113255 0.744479
vt 0.135885 0.744479
vt 0.135885 0.755412
vt 0.181923 0.717160
vt 0.710021 0.744128
vt 0.282460 0.745236
vt 0.135885 0.755412
vt 0.135885 0.744479
vt 0.282460 0.728446
vt 0.282460 0.745236
vt 0.247708 0.745236
vt 0.106959 0.736273
vt 0.282460 0.728446
vt 0.096026 0.736273
vt 0.247708 0.728446
vt 0.738596 0.634258
vt 0.641390 0.611575
vt 0.504408 0.473788
vt 0.504408 0.553078
vt 0.605449 0.505882
vt 0.554929 0.473788
vt 0.232791 0.860307
vt 0.232791 0.893108
vt 0.961564 0.744965
vt 0.961564 0.795337
vt 0.113242 0.758866
vt 0.094210 0.746898
vt 0.961564 0.694593
vt 0.961564 0.644222
vt 0.453888 0.505882
vt 0.504408 0.473788
vt 0.091010 0.863260
vt 0.181923 0.783656
vt 0.149025 0.732024
vt 0.181923 0.732024
vt 0.149025 0.732024
vt 0.554929 0.473788
vt 0.149025 0.783656
vt 0.562146 0.824494
vt 0.742754 0.832539
vt 0.846854 0.635562
vt 0.738596 0.640414
vt 0.742754 0.832539
vt 0.944181 0.907503
vt 0.095347 0.836839
vt 0.279055 0.906341
vt 0.504408 0.632368
vt 0.851012 0.694042
vt 0.738596 0.475570
vt 0.587035 0.799886
vt 0.851012 0.744414
vt 0.160801 0.859948
vt 0.554929 0.632368
vt 0.149025 0.835289
vt 0.279055 0.840544
vt 0.725516 0.895689
vt 0.287739 0.741850
vt 0.718636 0.643087
vt 0.699568 0.794649
vt 0.470972 0.730609
vt 0.622534 0.544847
vt 0.699568 0.946210
vt 0.493105 0.634277
vt 0.718636 0.794649
vt 0.644666 0.641179
vt 0.096379 0.760108
vt 0.554929 0.553078
vn -1.0000 0.0000 0.0000
vn 0.0000 0.0000 -1.0000
vn 1.0000 0.0000 0.0000
vn 0.0000 0.0000 1.0000
vn 0.0000 -1.0000 0.0000
vn 0.0000 1.0000 0.0000
vn -0.4919 0.7277 -0.4781
vn 0.9653 -0.2612 -0.0000
vn -0.1634 -0.6700 0.7242
vn 0.3125 0.8470 0.4300
vn 0.3367 0.9127 0.2316
vn -0.8170 -0.2381 0.5252
vn -0.8170 -0.2381 -0.5252
vn -0.9893 -0.1457 0.0000
vn 0.3367 0.9127 -0.2316
vn 0.7910 0.6118 -0.0000
vn 0.3125 0.8470 -0.4300
vn 0.6174 0.7866 0.0000
vn -0.1634 -0.6700 -0.7242
vn -0.1896 -0.9819 0.0000
vn -0.4919 0.7277 0.4781
vn -0.9366 0.3505 0.0000
vn -0.5852 0.7184 0.3762
vn 0.9852 -0.1712 -0.0000
vn 0.9710 -0.1687 -0.1692
vn 0.9710 -0.1687 0.1692
vn -0.5852 0.7184 -0.3762
vn 0.6406 0.7679 0.0000
vn -0.9630 -0.2697 0.0000
vn 0.0779 0.2690 -0.9600
vn 0.9802 0.1981 -0.0000
vn 0.0779 0.2690 0.9600
vn -0.9606 0.2781 0.0000
vn -0.2244 0.1075 -0.9685
vn -0.2244 0.1075 0.9685
vn -0.1271 -0.6584 -0.7418
vn 0.3461 0.9382 -0.0000
vn -0.1271 -0.6584 0.7418
vn -0.5956 -0.8033 0.0000
vn -0.9302 -0.3669 -0.0000
vn 0.9999 0.0112 -0.0000
vn -0.7172 0.2684 -0.6431
vn -0.1351 -0.6997 0.7015
vn 0.5012 0.6386 0.5839
vn 0.7263 0.5617 0.3963
vn -0.7793 -0.1147 0.6160
vn -0.7793 -0.1147 -0.6160
vn 0.7263 0.5617 -0.3963
vn 0.5012 0.6386 -0.5839
vn -0.1351 -0.6997 -0.7015
vn -0.7172 0.2684 0.6431
vn 0.7732 0.5980 -0.2110
vn 0.7732 0.5980 0.2110
usemtl マテリアル.003
s off
f 2/1/1 3/2/1 1/3/1
f 4/4/2 7/5/2 3/6/2
f 8/7/3 5/8/3 7/9/3
f 6/10/4 1/11/4 5/8/4
f 7/12/5 1/13/5 3/14/5
f 4/15/6 6/16/6 8/17/6
f 42/18/7 12/19/7 34/20/7
f 47/21/2 35/22/2 56/23/2
f 28/24/8 36/25/8 40/26/8
f 37/27/4 10/28/4 33/29/4
f 54/30/9 13/31/9 48/32/9
f 30/33/10 10/34/10 20/35/10
f 52/36/11 20/35/11 50/37/11
f 22/38/12 19/39/12 9/40/12
f 55/41/4 20/42/4 37/27/4
f 12/43/2 38/44/2 34/45/2
f 17/46/13 21/47/13 11/48/13
f 31/49/14 22/50/14 21/51/14
f 18/52/15 51/53/15 47/54/15
f 29/55/16 52/56/16 51/57/16
f 12/58/17 29/59/17 18/52/17
f 24/60/18 30/61/18 29/55/18
f 15/62/19 53/63/19 49/64/19
f 26/65/20 54/66/20 53/67/20
f 16/68/8 39/69/8 35/70/8
f 27/71/8 40/72/8 39/73/8
f 10/74/21 41/75/21 33/76/21
f 41/75/22 24/77/22 42/18/22
f 22/78/4 41/79/4 44/80/4
f 9/81/23 41/79/23 22/78/23
f 39/73/24 25/82/24 26/83/24
f 15/84/25 39/73/25 26/83/25
f 11/48/2 38/85/2 17/46/2
f 48/86/4 37/87/4 19/39/4
f 37/87/4 9/40/4 19/39/4
f 40/72/26 13/88/26 25/82/26
f 56/89/2 15/90/2 49/91/2
f 42/92/27 11/93/27 21/94/27
f 43/95/28 44/96/28 45/97/28
f 21/51/29 22/50/29 43/98/29
f 42/92/2 21/94/2 45/99/2
f 42/100/30 45/97/30 46/101/30
f 42/100/31 46/102/31 41/103/31
f 44/96/32 41/103/32 46/102/32
f 45/97/33 44/96/33 46/101/33
f 45/104/34 21/105/34 43/106/34
f 44/107/35 43/108/35 22/109/35
f 38/85/2 49/91/2 17/46/2
f 13/110/4 55/111/4 48/86/4
f 54/30/4 58/112/4 60/113/4
f 17/114/36 53/63/36 31/115/36
f 51/57/16 28/116/16 27/117/16
f 47/54/37 27/118/37 16/119/37
f 36/120/4 50/121/4 55/41/4
f 28/122/37 50/37/37 14/123/37
f 54/30/38 19/124/38 32/125/38
f 18/126/2 56/23/2 38/44/2
f 59/127/39 58/128/39 57/129/39
f 32/130/40 57/129/40 58/128/40
f 53/63/2 57/131/2 31/115/2
f 53/67/41 60/132/41 59/127/41
f 2/1/1 4/133/1 3/2/1
f 4/4/2 8/134/2 7/5/2
f 8/7/3 6/135/3 5/8/3
f 6/10/4 2/136/4 1/11/4
f 7/12/5 5/137/5 1/13/5
f 4/15/6 2/138/6 6/16/6
f 42/18/42 24/77/42 12/19/42
f 47/21/2 16/139/2 35/22/2
f 28/24/8 14/140/8 36/25/8
f 37/27/4 20/42/4 10/28/4
f 54/30/43 25/141/43 13/31/43
f 30/33/44 23/142/44 10/34/44
f 52/36/45 30/33/45 20/35/45
f 22/38/46 32/143/46 19/39/46
f 55/41/4 50/121/4 20/42/4
f 12/43/2 18/126/2 38/44/2
f 17/46/47 31/144/47 21/47/47
f 31/49/14 32/130/14 22/50/14
f 18/52/48 29/59/48 51/53/48
f 29/55/16 30/61/16 52/56/16
f 12/58/49 24/145/49 29/59/49
f 24/60/18 23/146/18 30/61/18
f 15/62/50 26/147/50 53/63/50
f 26/65/20 25/148/20 54/66/20
f 16/68/8 27/149/8 39/69/8
f 27/71/8 28/150/8 40/72/8
f 10/74/51 23/151/51 41/75/51
f 41/75/22 23/151/22 24/77/22
f 9/81/21 33/152/21 41/79/21
f 39/73/24 40/72/24 25/82/24
f 15/84/8 35/153/8 39/73/8
f 11/48/2 34/154/2 38/85/2
f 48/86/4 55/111/4 37/87/4
f 37/87/4 33/155/4 9/40/4
f 40/72/8 36/156/8 13/88/8
f 56/89/2 35/157/2 15/90/2
f 42/92/7 34/158/7 11/93/7
f 38/85/2 56/89/2 49/91/2
f 13/110/4 36/159/4 55/111/4
f 54/30/4 32/125/4 58/112/4
f 17/114/19 49/64/19 53/63/19
f 51/57/16 52/56/16 28/116/16
f 47/54/52 51/53/52 27/118/52
f 36/120/4 14/160/4 50/121/4
f 28/122/53 52/36/53 50/37/53
f 54/30/9 48/32/9 19/124/9
f 18/126/2 47/21/2 56/23/2
f 59/127/39 60/132/39 58/128/39
f 32/130/40 31/49/40 57/129/40
f 53/63/2 59/161/2 57/131/2
f 53/67/41 54/66/41 60/132/41
