# Blender v3.1.2 OBJ File: 'BossHead.blend'
# www.blender.org
mtllib BossHead.mtl
o 立方体_立方体.001
v 0.743201 -1.000000 0.747838
v 0.743108 1.000000 0.747838
v -0.758239 -1.000000 0.747838
v -0.758006 1.000000 0.747838
v 0.743201 -1.000000 -0.708103
v 0.743108 1.000000 -0.462532
v -0.758239 -1.000000 -0.708103
v -0.758006 1.000000 -0.462532
v -1.008239 0.751141 0.747838
v 0.391761 -1.000000 -0.708103
v 0.141761 -1.000000 -0.708103
v -0.158239 -1.000000 -0.708103
v -0.408239 -1.000000 -0.708103
v -0.158239 1.000000 -0.462532
v 0.141761 1.000000 -0.462532
v 0.991761 0.751141 0.747838
v 0.991761 -0.748858 0.991897
v 0.991761 0.751141 0.991897
v -1.008239 0.751141 0.991897
v -1.008239 -0.748858 0.991897
v -1.008239 0.751141 -0.708103
v -1.008239 0.501141 -0.707271
v -1.008239 -0.248858 -0.707271
v -1.008239 -0.748858 -0.708103
v 0.991761 0.751141 -0.708103
v 0.991761 0.501141 -0.707271
v 0.991761 -0.248858 -0.707271
v 0.991761 -0.748858 -0.708103
v -0.758239 0.751141 -0.708103
v -0.758647 0.501141 -0.708103
v -0.758239 0.251142 -0.708103
v -0.758239 0.001142 -0.708103
v -0.758239 -0.248858 -0.708103
v -0.758239 -0.748858 -0.708103
v -0.408239 -0.248858 -0.708103
v -0.158239 0.751141 -0.708103
v -0.158239 0.001142 -0.708103
v -0.158239 -0.248858 -0.708103
v 0.141761 0.751141 -0.708103
v 0.141761 0.001142 -0.708103
v 0.141761 -0.248858 -0.708103
v 0.391761 -0.248858 -0.708103
v 0.741761 0.751141 -0.708103
v 0.741761 0.501141 -0.708103
v 0.741761 0.251142 -0.708103
v 0.741761 0.001142 -0.708103
v 0.741761 -0.248858 -0.708103
v 0.741761 -0.748858 -0.708103
v 0.741761 0.751141 0.991897
v 0.741761 -0.748858 0.991897
v -0.758239 0.751141 0.991897
v -0.758239 -0.748858 0.991897
v 0.141761 -1.000000 -0.967997
v -0.158239 -1.000000 -0.967997
v -0.158239 1.000000 -0.722397
v 0.141761 1.000000 -0.722397
v -0.758647 0.501141 -0.967997
v -0.758239 0.251142 -0.967997
v -0.758239 0.001142 -0.967997
v -0.758239 -0.248858 -0.967997
v -0.408239 -0.248858 -0.967997
v -0.158239 0.751141 -0.967997
v -0.158239 0.501141 -0.967997
v -0.158239 0.251142 -0.967997
v -0.158239 0.001142 -0.967997
v -0.158239 -0.248858 -0.967997
v 0.141761 0.751141 -0.967997
v 0.141761 0.501141 -0.967997
v 0.141761 0.251142 -0.967997
v 0.141761 0.001142 -0.967997
v 0.141761 -0.248858 -0.967997
v 0.391761 -0.248858 -0.967997
v 0.741761 0.501141 -0.967997
v 0.741761 0.251142 -0.967997
v 0.741761 0.001142 -0.967997
v 0.741761 -0.248858 -0.967997
v -0.758239 -1.000000 -0.462561
v 0.743201 -1.000000 -0.462561
v 0.991761 -0.748858 -0.462561
v 0.991761 0.751141 -0.462561
v -1.008239 -0.748858 -0.462561
v -1.008239 0.751141 -0.462561
v -1.008239 -0.748858 0.747838
v 0.991761 -0.748858 0.747838
v -0.158239 0.251142 -0.708103
v 0.141761 0.251142 -0.708103
v -0.158239 0.551142 -0.708103
v -0.158239 0.551142 -0.967997
v 0.141761 0.551142 -0.967997
v 0.141761 0.551142 -0.708103
v 0.141761 -0.753361 -0.708103
v 0.391761 -0.753361 -0.708103
v 0.141761 -0.753361 -0.967997
v 0.391761 -0.753361 -0.967997
v -0.408239 -0.753361 -0.708103
v -0.158239 -0.753361 -0.708103
v -0.408239 -0.753361 -0.967997
v -0.158239 -0.753361 -0.967997
vt 0.844441 0.411724
vt 0.868672 0.387581
vt 0.868672 0.436089
vt 0.865277 0.341359
vt 0.889299 0.317009
vt 0.889299 0.365065
vt 0.845801 0.478522
vt 0.870108 0.454458
vt 0.870108 0.502810
vt 0.655576 0.708771
vt 0.655576 0.756681
vt 0.631626 0.732260
vt 0.746407 0.110836
vt 0.698280 0.277200
vt 0.698280 0.110836
vt 0.630423 0.483378
vt 0.664628 0.649742
vt 0.630423 0.649746
vt 0.870188 0.612710
vt 0.870188 0.661216
vt 0.845958 0.637075
vt 0.698832 0.620983
vt 0.664628 0.703453
vt 0.664628 0.620983
vt 0.546398 0.711671
vt 0.580417 0.746033
vt 0.546212 0.746033
vt 0.402886 0.592105
vt 0.437405 0.385932
vt 0.437405 0.592105
vt 0.339086 0.552098
vt 0.307258 0.552098
vt 0.243626 0.385734
vt 0.630266 0.742452
vt 0.595904 0.708130
vt 0.630266 0.707933
vt 0.844441 0.385734
vt 0.810079 0.317009
vt 0.844441 0.317009
vt 0.349547 0.552154
vt 0.383909 0.634623
vt 0.349547 0.634623
vt 0.739613 0.698825
vt 0.703890 0.629482
vt 0.739613 0.629482
vt 0.845801 0.518115
vt 0.810079 0.454458
vt 0.845801 0.454458
vt 0.900167 0.676366
vt 0.868339 0.712085
vt 0.868339 0.676366
vt 0.449799 0.702636
vt 0.483742 0.738358
vt 0.449799 0.738358
vt 0.541817 0.750906
vt 0.517685 0.726444
vt 0.541817 0.702636
vt 0.741512 0.317009
vt 0.595904 0.483377
vt 0.595904 0.317009
vt 0.080657 0.901796
vt 0.080657 0.873625
vt 0.097409 0.873625
vt 0.870108 0.470329
vt 0.891360 0.454458
vt 0.891360 0.499043
vt 0.741512 0.708741
vt 0.775715 0.626304
vt 0.775715 0.708741
vt 0.868339 0.676366
vt 0.868339 0.725073
vt 0.843986 0.700831
vt 0.546212 0.551442
vt 0.498105 0.620167
vt 0.498105 0.550823
vt 0.891417 0.657268
vt 0.870188 0.641440
vt 0.891417 0.612710
vt 0.437248 0.744332
vt 0.402942 0.709970
vt 0.437248 0.709970
vt 0.659228 0.649746
vt 0.659228 0.708771
vt 0.631626 0.668810
vt 0.349349 0.703967
vt 0.349547 0.738486
vt 0.315185 0.738486
vt 0.810079 0.454458
vt 0.844441 0.385734
vt 0.844441 0.454458
vt 0.649713 0.312926
vt 0.684075 0.277204
vt 0.684075 0.312926
vt 0.775874 0.708741
vt 0.741512 0.743103
vt 0.741512 0.708741
vt 0.277376 0.747891
vt 0.243626 0.713372
vt 0.277376 0.713372
vt 0.449997 0.551442
vt 0.449799 0.516923
vt 0.498105 0.550823
vt 0.313825 0.706944
vt 0.313825 0.741463
vt 0.279463 0.741463
vt 0.532467 0.654529
vt 0.532467 0.702636
vt 0.498105 0.702636
vt 0.313825 0.706944
vt 0.279463 0.637601
vt 0.313825 0.637601
vt 0.279463 0.655185
vt 0.243626 0.620822
vt 0.243626 0.586460
vt 0.841955 0.592711
vt 0.807593 0.523368
vt 0.841955 0.523368
vt 0.775874 0.591910
vt 0.741512 0.626270
vt 0.741512 0.523183
vt 0.845958 0.676366
vt 0.810236 0.612710
vt 0.845958 0.612710
vt 0.811857 0.158891
vt 0.837283 0.135926
vt 0.837283 0.183984
vt 0.844441 0.346026
vt 0.865277 0.358568
vt 0.844444 0.387581
vt 0.517685 0.702636
vt 0.483742 0.738358
vt 0.483742 0.702636
vt 0.775874 0.772136
vt 0.799897 0.736414
vt 0.799897 0.772136
vt 0.871731 0.235952
vt 0.896082 0.200230
vt 0.896082 0.235952
vt 0.350907 0.703967
vt 0.315185 0.634623
vt 0.350907 0.634623
vt 0.877886 0.738753
vt 0.897903 0.725073
vt 0.897903 0.768340
vt 0.097425 0.929880
vt 0.080673 0.929880
vt 0.080673 0.915920
vt 0.891747 0.314941
vt 0.871731 0.301261
vt 0.891747 0.271674
vt 0.775874 0.695179
vt 0.810236 0.612710
vt 0.810236 0.695179
vt 0.896082 0.235952
vt 0.871731 0.271674
vt 0.871731 0.235952
vt 0.684075 0.312926
vt 0.718438 0.277204
vt 0.718438 0.312926
vt 0.449799 0.350555
vt 0.595904 0.317009
vt 0.595904 0.350555
vt 0.739498 0.532079
vt 0.739498 0.605131
vt 0.705863 0.629482
vt 0.780157 0.317009
vt 0.746522 0.282647
vt 0.746522 0.179560
vt 0.810236 0.676367
vt 0.843986 0.724933
vt 0.810236 0.724933
vt 0.546212 0.551005
vt 0.546212 0.516923
vt 0.579961 0.516923
vt 0.616167 0.110836
vt 0.649713 0.317009
vt 0.616167 0.317009
vt 0.869475 0.582033
vt 0.841955 0.562851
vt 0.869475 0.523368
vt 0.864914 0.110836
vt 0.864914 0.169620
vt 0.837283 0.130215
vt 0.349547 0.552098
vt 0.349547 0.634623
vt 0.315185 0.552098
vt 0.739613 0.740679
vt 0.703890 0.698825
vt 0.739613 0.698825
vt 0.811858 0.110836
vt 0.811858 0.200230
vt 0.780157 0.186969
vt 0.811876 0.200230
vt 0.811876 0.289571
vt 0.780157 0.213446
vt 0.315185 0.552098
vt 0.279463 0.637601
vt 0.279463 0.552098
vt 0.807593 0.612710
vt 0.775874 0.536584
vt 0.807593 0.523368
vt 0.775874 0.695179
vt 0.810077 0.736414
vt 0.775874 0.736414
vt 0.888971 0.145198
vt 0.888971 0.193332
vt 0.864914 0.169954
vt 0.630423 0.649745
vt 0.595904 0.649745
vt 0.698280 0.277204
vt 0.649713 0.110836
vt 0.698280 0.110836
vt 0.449799 0.351372
vt 0.243626 0.385734
vt 0.243626 0.351372
vt 0.775874 0.317195
vt 0.810079 0.523336
vt 0.775874 0.523368
vt 0.484162 0.668274
vt 0.484162 0.702636
vt 0.449799 0.702636
vt 0.595904 0.649746
vt 0.631626 0.707933
vt 0.595904 0.707933
vt 0.243626 0.713372
vt 0.279348 0.655185
vt 0.279348 0.713372
vt 0.350907 0.668986
vt 0.350907 0.634623
vt 0.386629 0.634623
vt 0.869475 0.523368
vt 0.896965 0.564603
vt 0.869475 0.564603
vt 0.811876 0.200230
vt 0.847598 0.200230
vt 0.847598 0.224580
vt 0.097421 0.930021
vt 0.080669 0.957941
vt 0.080669 0.930021
vt 0.869475 0.600325
vt 0.898569 0.564603
vt 0.898569 0.600325
vt 0.868672 0.387581
vt 0.896162 0.428816
vt 0.868672 0.428816
vt 0.449799 0.738358
vt 0.469280 0.774080
vt 0.449799 0.774080
vt 0.718438 0.277204
vt 0.745927 0.312926
vt 0.718438 0.312926
vt 0.877886 0.759435
vt 0.843986 0.759435
vt 0.843986 0.725073
vt 0.546212 0.662531
vt 0.581934 0.711671
vt 0.546212 0.711671
vt 0.350907 0.739070
vt 0.384807 0.703348
vt 0.384807 0.739070
vt 0.847598 0.272739
vt 0.871731 0.248931
vt 0.871731 0.297201
vt 0.402886 0.660830
vt 0.438608 0.709970
vt 0.402886 0.709970
vt 0.864914 0.145198
vt 0.864914 0.110836
vt 0.898814 0.145198
vt 0.847598 0.297199
vt 0.811876 0.248931
vt 0.847598 0.248931
vt 0.871731 0.248500
vt 0.847598 0.224691
vt 0.871731 0.200230
vt 0.810085 0.759296
vt 0.843986 0.724933
vt 0.843986 0.759296
vt 0.698529 0.703638
vt 0.664628 0.739360
vt 0.664628 0.703638
vt 0.746407 0.277204
vt 0.664628 0.483378
vt 0.698832 0.703638
vt 0.402886 0.385734
vt 0.243626 0.552098
vt 0.402886 0.385734
vt 0.402886 0.552098
vt 0.810079 0.385734
vt 0.383909 0.552098
vt 0.703890 0.698825
vt 0.810079 0.518115
vt 0.900167 0.712085
vt 0.483742 0.702636
vt 0.741512 0.483378
vt 0.080657 0.859852
vt 0.097409 0.859852
vt 0.097409 0.901796
vt 0.097409 0.915756
vt 0.080657 0.915756
vt 0.741512 0.626272
vt 0.498105 0.516923
vt 0.546212 0.516923
vt 0.546212 0.620167
vt 0.402886 0.744332
vt 0.810079 0.385734
vt 0.649713 0.277204
vt 0.775874 0.743103
vt 0.243626 0.747891
vt 0.498105 0.516923
vt 0.498105 0.620167
vt 0.449997 0.620167
vt 0.498105 0.620167
vt 0.532467 0.620167
vt 0.279463 0.706944
vt 0.243626 0.552098
vt 0.279463 0.552098
vt 0.243626 0.655185
vt 0.807593 0.592711
vt 0.775874 0.523185
vt 0.775874 0.557547
vt 0.775874 0.626272
vt 0.810236 0.676366
vt 0.811860 0.110836
vt 0.865277 0.317009
vt 0.517685 0.738358
vt 0.775874 0.736414
vt 0.871731 0.200230
vt 0.315185 0.703967
vt 0.047169 0.929880
vt 0.047169 0.915920
vt 0.097425 0.915920
vt 0.130929 0.915920
vt 0.130929 0.929880
vt 0.775874 0.612710
vt 0.896082 0.271674
vt 0.684075 0.277204
vt 0.595904 0.516923
vt 0.449799 0.516923
vt 0.449799 0.317009
vt 0.739613 0.629482
vt 0.705863 0.483377
vt 0.739613 0.483377
vt 0.746407 0.110836
vt 0.780157 0.110836
vt 0.746407 0.317009
vt 0.843986 0.676367
vt 0.579961 0.662531
vt 0.546212 0.575250
vt 0.546212 0.662531
vt 0.546212 0.628588
vt 0.546212 0.604344
vt 0.449799 0.317009
vt 0.449799 0.110836
vt 0.649713 0.110836
vt 0.703890 0.740679
vt 0.315185 0.637601
vt 0.810077 0.695179
vt 0.630423 0.483377
vt 0.649713 0.277204
vt 0.449799 0.110836
vt 0.449799 0.145198
vt 0.243626 0.110836
vt 0.243626 0.145198
vt 0.449799 0.385734
vt 0.810079 0.317009
vt 0.449799 0.620167
vt 0.484162 0.620167
vt 0.631626 0.649746
vt 0.243626 0.655185
vt 0.386629 0.703348
vt 0.350907 0.703348
vt 0.896965 0.523368
vt 0.847598 0.248931
vt 0.811876 0.248931
vt 0.097421 0.957941
vt 0.869475 0.564603
vt 0.896162 0.387581
vt 0.469280 0.738358
vt 0.745927 0.277204
vt 0.581934 0.662531
vt 0.350907 0.703348
vt 0.438608 0.660830
vt 0.811876 0.297199
vt 0.698529 0.739360
vn 0.0000 0.7002 0.7140
vn -0.7052 0.7091 -0.0000
vn 0.0000 0.7024 -0.7118
vn 0.7074 0.7068 0.0000
vn 0.0000 -0.6969 0.7171
vn 0.0000 1.0000 0.0000
vn 0.0000 0.0000 -1.0000
vn -1.0000 0.0000 0.0000
vn 0.0000 -1.0000 0.0000
vn 0.0000 0.0000 1.0000
vn -0.0033 -0.0033 -1.0000
vn 0.7108 -0.7034 -0.0000
vn 0.0033 -0.0033 -1.0000
vn -0.7087 -0.7055 0.0000
vn -0.7218 0.0000 -0.6921
vn 0.7218 0.0000 -0.6921
vn 1.0000 0.0000 0.0000
vn -0.3844 0.9232 0.0000
vn 0.3846 0.9231 0.0000
vn 0.7023 -0.7119 0.0000
vn -0.7023 -0.7119 0.0000
vn 0.0033 0.0017 -1.0000
vn -0.0033 0.0017 -1.0000
vn -0.7224 -0.0012 -0.6915
usemtl マテリアル
s off
f 51/1/1 4/2/1 19/3/1
f 82/4/2 8/5/2 21/6/2
f 43/7/3 6/8/3 25/9/3
f 19/10/2 4/11/2 9/12/2
f 16/13/4 6/14/4 2/15/4
f 9/16/2 8/17/2 82/18/2
f 21/19/3 8/20/3 29/21/3
f 15/22/3 43/23/3 39/24/3
f 18/25/1 2/26/1 49/27/1
f 3/28/5 50/29/5 52/30/5
f 15/31/6 14/32/6 4/33/6
f 1/34/5 17/35/5 50/36/5
f 47/37/7 28/38/7 48/39/7
f 58/40/7 63/41/7 64/42/7
f 41/43/8 93/44/8 91/45/8
f 46/46/6 70/47/6 40/48/6
f 15/49/6 55/50/6 14/51/6
f 35/52/9 60/53/9 61/54/9
f 92/55/10 91/56/10 11/57/10
f 78/58/9 3/59/9 77/60/9
f 41/61/7 91/62/7 96/63/7
f 44/64/6 26/65/6 73/66/6
f 36/67/3 8/68/3 14/69/3
f 7/70/7 24/71/7 34/72/7
f 34/73/7 35/74/7 95/75/7
f 22/76/6 30/77/6 57/78/6
f 21/79/11 30/80/11 22/81/11
f 17/82/12 1/83/12 84/84/12
f 5/85/7 48/86/7 28/87/7
f 24/88/7 33/89/7 34/90/7
f 40/91/8 71/92/8 41/93/8
f 44/94/13 25/95/13 26/96/13
f 81/97/14 7/98/14 77/99/14
f 48/100/7 5/101/7 92/102/7
f 3/103/5 52/104/5 20/105/5
f 61/106/7 60/107/7 59/108/7
f 61/109/7 98/110/7 97/111/7
f 22/112/15 58/113/15 59/114/15
f 71/115/7 94/116/7 93/117/7
f 74/118/16 26/119/16 27/120/16
f 37/121/6 59/122/6 32/123/6
f 36/124/8 55/125/8 62/126/8
f 39/127/17 56/128/17 15/129/17
f 42/130/9 76/131/9 47/132/9
f 12/133/17 98/134/17 96/135/17
f 32/136/17 58/137/17 31/138/17
f 35/139/8 97/140/8 95/141/8
f 33/142/9 23/143/9 60/144/9
f 85/145/7 86/146/7 40/147/7
f 27/148/9 47/149/9 76/150/9
f 68/151/7 74/152/7 69/153/7
f 38/154/17 65/155/17 37/156/17
f 45/157/8 75/158/8 46/159/8
f 16/160/17 17/161/17 84/162/17
f 27/163/17 26/164/17 80/165/17
f 82/166/8 22/167/8 23/168/8
f 28/169/12 78/170/12 5/171/12
f 10/172/9 5/173/9 78/174/9
f 83/175/8 19/176/8 9/177/8
f 18/178/4 16/179/4 2/180/4
f 25/181/4 6/182/4 80/183/4
f 63/184/7 57/185/7 62/186/7
f 57/187/18 36/188/18 62/189/18
f 36/190/7 30/191/7 29/192/7
f 44/193/7 39/194/7 43/195/7
f 39/196/19 73/197/19 67/198/19
f 73/199/7 68/200/7 67/201/7
f 56/202/3 62/203/3 55/204/3
f 3/205/14 20/206/14 83/207/14
f 3/59/14 81/208/14 77/209/14
f 78/210/12 84/211/12 1/212/12
f 50/213/10 18/214/10 49/215/10
f 49/216/1 4/217/1 51/218/1
f 72/219/7 71/220/7 70/221/7
f 86/222/9 74/223/9 45/224/9
f 85/225/9 58/226/9 64/227/9
f 68/228/8 69/229/8 86/230/8
f 36/231/10 90/232/10 39/233/10
f 85/234/17 64/235/17 63/236/17
f 85/237/7 39/238/7 86/239/7
f 87/240/9 89/241/9 90/242/9
f 67/243/7 88/244/7 62/245/7
f 39/246/17 89/247/17 67/248/17
f 62/249/8 87/250/8 36/251/8
f 53/252/7 93/253/7 94/254/7
f 92/255/17 72/256/17 42/257/17
f 91/258/8 53/259/8 11/260/8
f 13/261/7 95/262/7 12/263/7
f 96/264/17 66/265/17 38/266/17
f 96/267/10 95/268/10 12/269/10
f 94/270/20 11/271/20 53/272/20
f 92/273/7 10/274/7 11/275/7
f 54/276/7 97/277/7 98/278/7
f 54/279/21 95/280/21 97/281/21
f 16/13/4 80/282/4 6/14/4
f 9/16/2 4/283/2 8/17/2
f 15/22/3 6/284/3 43/23/3
f 3/28/5 1/285/5 50/29/5
f 14/32/6 8/286/6 4/33/6
f 4/33/6 2/287/6 15/31/6
f 2/287/6 6/288/6 15/31/6
f 47/37/22 27/289/22 28/38/22
f 58/40/7 57/290/7 63/41/7
f 41/43/8 71/291/8 93/44/8
f 46/46/6 75/292/6 70/47/6
f 15/49/6 56/293/6 55/50/6
f 35/52/9 33/294/9 60/53/9
f 78/58/9 1/295/9 3/59/9
f 91/62/7 11/296/7 12/297/7
f 96/63/7 38/298/7 41/61/7
f 38/298/7 37/299/7 41/61/7
f 91/62/7 12/297/7 96/63/7
f 37/299/7 40/300/7 41/61/7
f 36/67/3 29/301/3 8/68/3
f 13/302/7 7/303/7 95/75/7
f 7/303/7 34/73/7 95/75/7
f 34/73/7 33/304/7 35/74/7
f 21/79/7 29/305/7 30/80/7
f 24/88/23 23/306/23 33/89/23
f 40/91/8 70/307/8 71/92/8
f 44/94/7 43/308/7 25/95/7
f 81/97/14 24/309/14 7/98/14
f 5/101/7 10/310/7 92/102/7
f 92/102/7 42/311/7 48/100/7
f 42/311/7 47/312/7 48/100/7
f 59/108/7 65/313/7 61/106/7
f 65/313/7 66/314/7 61/106/7
f 61/109/7 66/315/7 98/110/7
f 60/316/15 23/317/15 59/114/15
f 23/317/15 22/112/15 59/114/15
f 22/112/24 57/318/24 58/113/24
f 71/115/7 72/319/7 94/116/7
f 27/120/16 76/320/16 75/321/16
f 74/118/16 73/322/16 26/119/16
f 27/120/16 75/321/16 74/118/16
f 37/121/6 65/323/6 59/122/6
f 36/124/8 14/324/8 55/125/8
f 39/127/17 67/325/17 56/128/17
f 42/130/9 72/326/9 76/131/9
f 12/133/17 54/327/17 98/134/17
f 32/136/17 59/328/17 58/137/17
f 35/139/8 61/329/8 97/140/8
f 86/146/7 45/330/7 46/331/7
f 40/147/7 37/332/7 85/145/7
f 37/332/7 32/333/7 85/145/7
f 86/146/7 46/331/7 40/147/7
f 32/333/7 31/334/7 85/145/7
f 68/151/7 73/335/7 74/152/7
f 38/154/17 66/336/17 65/155/17
f 45/157/8 74/337/8 75/158/8
f 84/162/17 79/338/17 80/339/17
f 16/160/17 18/340/17 17/161/17
f 84/162/17 80/339/17 16/160/17
f 26/164/17 25/341/17 80/165/17
f 80/165/17 79/342/17 27/163/17
f 79/342/17 28/343/17 27/163/17
f 24/344/8 81/345/8 23/168/8
f 81/345/8 82/166/8 23/168/8
f 82/166/8 21/346/8 22/167/8
f 28/169/12 79/347/12 78/170/12
f 78/174/9 77/348/9 11/349/9
f 77/348/9 7/350/9 13/351/9
f 11/349/9 77/348/9 12/352/9
f 13/351/9 12/352/9 77/348/9
f 11/349/9 10/172/9 78/174/9
f 9/177/8 82/353/8 81/354/8
f 83/175/8 20/355/8 19/176/8
f 9/177/8 81/354/8 83/175/8
f 57/187/18 30/356/18 36/188/18
f 39/196/19 44/357/19 73/197/19
f 56/202/3 67/358/3 62/203/3
f 3/59/14 83/359/14 81/208/14
f 78/210/12 79/360/12 84/211/12
f 20/361/10 52/362/10 19/363/10
f 52/362/10 50/213/10 51/364/10
f 19/363/10 52/362/10 51/364/10
f 50/213/10 17/365/10 18/214/10
f 49/215/10 51/364/10 50/213/10
f 49/216/1 2/366/1 4/217/1
f 70/221/7 75/367/7 72/219/7
f 75/367/7 76/368/7 72/219/7
f 86/222/9 69/369/9 74/223/9
f 85/225/9 31/370/9 58/226/9
f 86/230/8 39/371/8 68/228/8
f 39/371/8 67/372/8 68/228/8
f 36/231/10 87/373/10 90/232/10
f 62/374/17 36/375/17 63/236/17
f 36/375/17 85/234/17 63/236/17
f 85/237/7 36/376/7 39/238/7
f 87/240/9 88/377/9 89/241/9
f 67/243/7 89/378/7 88/244/7
f 39/246/17 90/379/17 89/247/17
f 62/249/8 88/380/8 87/250/8
f 92/255/17 94/381/17 72/256/17
f 91/258/8 93/382/8 53/259/8
f 96/264/17 98/383/17 66/265/17
f 94/270/20 92/384/20 11/271/20
f 54/279/21 12/385/21 95/280/21
