# Blender v3.1.2 OBJ File: ''
# www.blender.org
mtllib CapsuleColliderParts2.mtl
o 円柱
v 0.000000 -1.000000 -1.000000
v 0.000000 1.000000 -1.000000
v 0.258819 -1.000000 -0.965926
v 0.258819 1.000000 -0.965926
v 0.500000 -1.000000 -0.866025
v 0.500000 1.000000 -0.866025
v 0.707107 -1.000000 -0.707107
v 0.707107 1.000000 -0.707107
v 0.866025 -1.000000 -0.500000
v 0.866025 1.000000 -0.500000
v 0.965926 -1.000000 -0.258819
v 0.965926 1.000000 -0.258819
v 1.000000 -1.000000 0.000000
v 1.000000 1.000000 0.000000
v 0.965926 -1.000000 0.258819
v 0.965926 1.000000 0.258819
v 0.866025 -1.000000 0.500000
v 0.866025 1.000000 0.500000
v 0.707107 -1.000000 0.707107
v 0.707107 1.000000 0.707107
v 0.500000 -1.000000 0.866025
v 0.500000 1.000000 0.866025
v 0.258819 -1.000000 0.965926
v 0.258819 1.000000 0.965926
v -0.000000 -1.000000 1.000000
v -0.000000 1.000000 1.000000
v -0.258819 -1.000000 0.965926
v -0.258819 1.000000 0.965926
v -0.500000 -1.000000 0.866025
v -0.500000 1.000000 0.866025
v -0.707107 -1.000000 0.707107
v -0.707107 1.000000 0.707107
v -0.866025 -1.000000 0.500000
v -0.866025 1.000000 0.500000
v -0.965926 -1.000000 0.258819
v -0.965926 1.000000 0.258819
v -1.000000 -1.000000 -0.000000
v -1.000000 1.000000 -0.000000
v -0.965926 -1.000000 -0.258819
v -0.965926 1.000000 -0.258819
v -0.866025 -1.000000 -0.500000
v -0.866025 1.000000 -0.500000
v -0.707107 -1.000000 -0.707107
v -0.707107 1.000000 -0.707107
v -0.500000 -1.000000 -0.866025
v -0.500000 1.000000 -0.866025
v -0.258819 -1.000000 -0.965926
v -0.258819 1.000000 -0.965926
vt 1.000000 1.000000
vt 0.958333 0.500000
vt 1.000000 0.500000
vt 0.958333 1.000000
vt 0.916667 0.500000
vt 0.916667 1.000000
vt 0.875000 0.500000
vt 0.875000 1.000000
vt 0.833333 0.500000
vt 0.833333 1.000000
vt 0.791667 0.500000
vt 0.791667 1.000000
vt 0.750000 0.500000
vt 0.750000 1.000000
vt 0.708333 0.500000
vt 0.708333 1.000000
vt 0.666667 0.500000
vt 0.666667 1.000000
vt 0.625000 0.500000
vt 0.625000 1.000000
vt 0.583333 0.500000
vt 0.583333 1.000000
vt 0.541666 0.500000
vt 0.541666 1.000000
vt 0.500000 0.500000
vt 0.500000 1.000000
vt 0.458333 0.500000
vt 0.458333 1.000000
vt 0.416666 0.500000
vt 0.416666 1.000000
vt 0.375000 0.500000
vt 0.375000 1.000000
vt 0.333333 0.500000
vt 0.333333 1.000000
vt 0.291667 0.500000
vt 0.291667 1.000000
vt 0.250000 0.500000
vt 0.250000 1.000000
vt 0.208333 0.500000
vt 0.208333 1.000000
vt 0.166666 0.500000
vt 0.166666 1.000000
vt 0.125000 0.500000
vt 0.125000 1.000000
vt 0.083333 0.500000
vt 0.083333 1.000000
vt 0.041666 0.500000
vt 0.041666 1.000000
vt -0.000000 0.500000
vt -0.000000 1.000000
vn 0.1305 0.0000 -0.9914
vn 0.3827 0.0000 -0.9239
vn 0.6088 0.0000 -0.7934
vn 0.7934 0.0000 -0.6088
vn 0.9239 0.0000 -0.3827
vn 0.9914 0.0000 -0.1305
vn 0.9914 0.0000 0.1305
vn 0.9239 0.0000 0.3827
vn 0.7934 0.0000 0.6088
vn 0.6088 0.0000 0.7934
vn 0.3827 0.0000 0.9239
vn 0.1305 0.0000 0.9914
vn -0.1305 0.0000 0.9914
vn -0.3827 0.0000 0.9239
vn -0.6088 0.0000 0.7934
vn -0.7934 0.0000 0.6088
vn -0.9239 0.0000 0.3827
vn -0.9914 0.0000 0.1305
vn -0.9914 0.0000 -0.1305
vn -0.9239 0.0000 -0.3827
vn -0.7934 0.0000 -0.6088
vn -0.6088 0.0000 -0.7934
vn -0.3827 0.0000 -0.9239
vn -0.1305 0.0000 -0.9914
usemtl None
s off
f 2/1/1 3/2/1 1/3/1
f 4/4/2 5/5/2 3/2/2
f 6/6/3 7/7/3 5/5/3
f 8/8/4 9/9/4 7/7/4
f 10/10/5 11/11/5 9/9/5
f 12/12/6 13/13/6 11/11/6
f 14/14/7 15/15/7 13/13/7
f 16/16/8 17/17/8 15/15/8
f 18/18/9 19/19/9 17/17/9
f 20/20/10 21/21/10 19/19/10
f 22/22/11 23/23/11 21/21/11
f 24/24/12 25/25/12 23/23/12
f 26/26/13 27/27/13 25/25/13
f 28/28/14 29/29/14 27/27/14
f 30/30/15 31/31/15 29/29/15
f 32/32/16 33/33/16 31/31/16
f 34/34/17 35/35/17 33/33/17
f 36/36/18 37/37/18 35/35/18
f 38/38/19 39/39/19 37/37/19
f 40/40/20 41/41/20 39/39/20
f 42/42/21 43/43/21 41/41/21
f 44/44/22 45/45/22 43/43/22
f 46/46/23 47/47/23 45/45/23
f 48/48/24 1/49/24 47/47/24
f 2/1/1 4/4/1 3/2/1
f 4/4/2 6/6/2 5/5/2
f 6/6/3 8/8/3 7/7/3
f 8/8/4 10/10/4 9/9/4
f 10/10/5 12/12/5 11/11/5
f 12/12/6 14/14/6 13/13/6
f 14/14/7 16/16/7 15/15/7
f 16/16/8 18/18/8 17/17/8
f 18/18/9 20/20/9 19/19/9
f 20/20/10 22/22/10 21/21/10
f 22/22/11 24/24/11 23/23/11
f 24/24/12 26/26/12 25/25/12
f 26/26/13 28/28/13 27/27/13
f 28/28/14 30/30/14 29/29/14
f 30/30/15 32/32/15 31/31/15
f 32/32/16 34/34/16 33/33/16
f 34/34/17 36/36/17 35/35/17
f 36/36/18 38/38/18 37/37/18
f 38/38/19 40/40/19 39/39/19
f 40/40/20 42/42/20 41/41/20
f 42/42/21 44/44/21 43/43/21
f 44/44/22 46/46/22 45/45/22
f 46/46/23 48/48/23 47/47/23
f 48/48/24 2/50/24 1/49/24
