# Blender v3.1.2 OBJ File: 'BossHead.blend'
# www.blender.org
mtllib BossRightArm.mtl
v 0.501303 -1.750000 -0.500000
v 0.501303 0.000000 -0.500000
v 0.501303 -1.750000 0.500000
v 0.501303 0.000000 0.500000
v -0.498697 -1.750000 -0.500000
v -0.498697 0.000000 -0.500000
v -0.498697 -1.750000 0.500000
v -0.498697 0.000000 0.500000
v 1.068421 -0.315662 -0.700000
v 0.212685 0.262839 -0.700000
v 1.068421 -0.315662 0.700000
v 0.212685 0.262839 0.700000
v -0.210080 -1.071397 -0.700000
v -0.499981 -0.000066 -0.700000
v -0.210080 -1.071397 0.700000
v -0.499981 -0.000066 0.700000
v 0.929170 -0.793530 0.700000
v -0.143648 0.131387 0.700000
v 0.929170 -0.793530 -0.700000
v -0.143648 0.131387 -0.700000
v 1.368421 -0.315662 0.233333
v 1.368421 -0.315662 -0.233334
v 0.412685 0.462839 -0.233334
v 0.412685 0.462839 0.233333
v -0.210080 -1.071397 -0.233333
v -0.210080 -1.071397 0.233333
v -0.499981 -0.000066 0.233333
v -0.499981 -0.000066 -0.233333
v -0.243648 0.331387 0.233333
v -0.243648 0.331387 -0.233334
v 1.229170 -0.793530 0.233333
v 1.229170 -0.793530 -0.233334
v 0.397622 0.137817 -0.700000
v 0.397622 0.137817 0.700000
v -0.437329 -0.231596 0.700000
v -0.437330 -0.231596 -0.700000
v 0.088203 -0.068501 -0.700000
v 0.088203 -0.068501 0.700000
v -0.437330 -0.231596 0.233333
v -0.437330 -0.231596 -0.233333
v 0.619233 0.294594 -0.233334
v 0.619233 0.294594 0.233333
vt 0.453888 0.824494
vt 0.562146 0.940289
vt 0.453888 0.940289
vt 0.851012 0.832539
vt 0.742754 0.643087
vt 0.851012 0.643087
vt 0.955112 0.635562
vt 0.846854 0.450962
vt 0.955112 0.450962
vt 0.846854 0.640414
vt 0.738596 0.450962
vt 0.742754 0.940797
vt 0.849733 0.832539
vt 0.849733 0.940797
vt 0.944181 0.799563
vt 0.851012 0.903276
vt 0.851012 0.795337
vt 0.287739 0.774748
vt 0.274575 0.807646
vt 0.268965 0.774748
vt 0.091010 0.863260
vt 0.112210 0.838082
vt 0.107944 0.876637
vt 0.279055 0.873442
vt 0.262158 0.906341
vt 0.262158 0.873442
vt 0.108976 0.720310
vt 0.087705 0.707266
vt 0.098830 0.696136
vt 0.504408 0.632368
vt 0.453888 0.505882
vt 0.504408 0.473788
vt 0.919409 0.695877
vt 0.880672 0.643087
vt 0.921118 0.643655
vt 0.961564 0.694593
vt 0.961564 0.644222
vt 0.738596 0.475570
vt 0.684502 0.482851
vt 0.690659 0.450962
vt 0.113242 0.758866
vt 0.092042 0.733687
vt 0.086673 0.889681
vt 0.097798 0.900812
vt 0.532941 0.792605
vt 0.587035 0.799886
vt 0.539098 0.824494
vt 0.181923 0.717160
vt 0.149025 0.732024
vt 0.149025 0.717160
vt 0.921118 0.794770
vt 0.961564 0.744965
vt 0.961564 0.795337
vt 0.205340 0.893944
vt 0.232791 0.860307
vt 0.232791 0.893108
vt 0.880672 0.794203
vt 0.919409 0.746249
vt 0.160801 0.892749
vt 0.205340 0.861143
vt 0.605449 0.505882
vt 0.554929 0.632368
vt 0.554929 0.473788
vt 0.181923 0.835289
vt 0.181923 0.732024
vt 0.279055 0.807646
vt 0.262158 0.840544
vt 0.262158 0.807646
vt 0.725516 0.845169
vt 0.699568 0.895689
vt 0.699568 0.845169
vt 0.274575 0.708952
vt 0.287739 0.741850
vt 0.268965 0.741850
vt 0.200869 0.741850
vt 0.200869 0.774748
vt 0.631154 0.643087
vt 0.710021 0.693608
vt 0.605449 0.693608
vt 0.605449 0.895689
vt 0.605449 0.845169
vt 0.699568 0.794649
vt 0.605449 0.794649
vt 0.486553 0.693485
vt 0.580878 0.767997
vt 0.738596 0.634258
vt 0.638114 0.581971
vt 0.732440 0.507459
vt 0.605449 0.946210
vt 0.587035 0.641198
vt 0.710021 0.744128
vt 0.631154 0.794649
vt 0.605449 0.744128
vt 0.562146 0.824494
vt 0.742754 0.832539
vt 0.846854 0.635562
vt 0.738596 0.640414
vt 0.742754 0.832539
vt 0.944181 0.907503
vt 0.290280 0.807646
vt 0.095347 0.836839
vt 0.279055 0.906341
vt 0.453888 0.632368
vt 0.851012 0.694042
vt 0.096379 0.760108
vt 0.851012 0.744414
vt 0.160801 0.859948
vt 0.605449 0.632368
vt 0.149025 0.835289
vt 0.279055 0.840544
vt 0.725516 0.895689
vt 0.290280 0.708952
vt 0.718636 0.643087
vt 0.470972 0.730609
vt 0.644666 0.641179
vt 0.622534 0.544847
vt 0.699568 0.946210
vt 0.493105 0.634277
vt 0.718636 0.794649
vn 1.0000 0.0000 0.0000
vn 0.0000 0.0000 1.0000
vn -1.0000 0.0000 0.0000
vn 0.0000 0.0000 -1.0000
vn 0.0000 -1.0000 0.0000
vn 0.0000 1.0000 0.0000
vn 0.5509 0.6764 0.4889
vn -0.9653 -0.2612 0.0000
vn 0.1882 -0.9747 -0.1210
vn -0.3125 0.8470 -0.4300
vn -0.3461 0.9382 0.0000
vn 0.8170 -0.2381 -0.5252
vn 0.8170 -0.2381 0.5252
vn 0.9601 -0.2798 -0.0000
vn -0.7910 0.6118 0.0000
vn -0.3125 0.8470 0.4300
vn -0.1964 0.9805 0.0000
vn 0.1882 -0.9747 0.1210
vn 0.1896 -0.9819 0.0000
vn 0.5509 0.6764 -0.4889
vn 0.6316 0.7753 -0.0000
vn 0.5852 0.7184 -0.3762
vn 0.5852 0.7184 0.3762
vn 0.4813 0.7119 0.5114
vn 0.2370 -0.9715 0.0000
vn -0.1862 0.9294 -0.3186
vn -0.7263 0.5617 -0.3963
vn -0.7263 0.5617 0.3963
vn -0.1862 0.9294 0.3186
vn 0.4813 0.7119 -0.5114
vn 0.4919 0.7277 -0.4781
vn 0.4919 0.7277 0.4781
usemtl マテリアル.002
s off
f 2/1/1 3/2/1 1/3/1
f 4/4/2 7/5/2 3/6/2
f 8/7/3 5/8/3 7/9/3
f 6/10/4 1/11/4 5/8/4
f 7/12/5 1/13/5 3/14/5
f 4/15/6 6/16/6 8/17/6
f 24/18/7 34/19/7 42/20/7
f 18/21/2 35/22/2 38/23/2
f 28/24/8 36/25/8 40/26/8
f 37/27/4 10/28/4 33/29/4
f 25/30/9 19/31/9 32/32/9
f 30/33/10 10/34/10 20/35/10
f 28/36/11 20/35/11 14/37/11
f 32/38/12 9/39/12 22/40/12
f 36/41/4 20/42/4 37/27/4
f 12/43/2 38/23/2 34/44/2
f 11/45/13 31/46/13 21/47/13
f 21/48/14 32/49/14 22/50/14
f 18/51/11 27/52/11 16/53/11
f 29/54/15 28/55/15 27/56/15
f 12/57/16 29/58/16 18/51/16
f 24/59/17 30/60/17 29/54/17
f 17/61/18 26/62/18 31/63/18
f 26/64/19 32/49/19 31/65/19
f 16/66/8 39/67/8 35/68/8
f 27/69/8 40/70/8 39/71/8
f 33/72/20 23/73/20 41/74/20
f 23/73/21 42/20/21 41/74/21
f 22/75/21 42/20/21 21/76/21
f 9/77/22 41/78/22 22/79/22
f 39/71/8 25/80/8 26/81/8
f 35/82/8 26/81/8 15/83/8
f 11/45/2 38/84/2 17/85/2
f 13/86/4 37/87/4 19/88/4
f 37/87/4 9/39/4 19/88/4
f 40/70/8 13/89/8 25/80/8
f 38/84/2 15/90/2 17/85/2
f 42/91/23 11/92/23 21/93/23
f 2/1/1 4/94/1 3/2/1
f 4/4/2 8/95/2 7/5/2
f 8/7/3 6/96/3 5/8/3
f 6/10/4 2/97/4 1/11/4
f 7/12/5 5/98/5 1/13/5
f 4/15/6 2/99/6 6/16/6
f 24/18/24 12/100/24 34/19/24
f 18/21/2 16/101/2 35/22/2
f 28/24/8 14/102/8 36/25/8
f 37/27/4 20/42/4 10/28/4
f 25/30/25 13/103/25 19/31/25
f 30/33/26 23/104/26 10/34/26
f 28/36/27 30/33/27 20/35/27
f 32/38/12 19/88/12 9/39/12
f 36/41/4 14/105/4 20/42/4
f 12/43/2 18/21/2 38/23/2
f 11/45/13 17/85/13 31/46/13
f 21/48/14 31/65/14 32/49/14
f 18/51/28 29/58/28 27/52/28
f 29/54/15 30/60/15 28/55/15
f 12/57/29 24/106/29 29/58/29
f 24/59/17 23/107/17 30/60/17
f 17/61/25 15/108/25 26/62/25
f 26/64/19 25/109/19 32/49/19
f 16/66/8 27/110/8 39/67/8
f 27/69/8 28/111/8 40/70/8
f 33/72/30 10/112/30 23/73/30
f 23/73/21 24/18/21 42/20/21
f 22/75/21 41/74/21 42/20/21
f 9/77/31 33/113/31 41/78/31
f 39/71/8 40/70/8 25/80/8
f 35/82/8 39/71/8 26/81/8
f 11/45/2 34/114/2 38/84/2
f 13/86/4 36/115/4 37/87/4
f 37/87/4 33/116/4 9/39/4
f 40/70/8 36/117/8 13/89/8
f 38/84/2 35/118/2 15/90/2
f 42/91/32 34/119/32 11/92/32
