# Blender v3.1.2 OBJ File: 'untitled.blend'
# www.blender.org
mtllib Club.mtl
o Cube.001
v 0.000000 0.393875 -1.416826
v -0.244855 0.254271 -1.022449
v 0.000000 0.323901 -0.970355
v -0.376769 0.009416 -1.447277
v -0.244855 -0.235439 -1.022449
v -0.308195 0.009416 -1.009737
v 0.000000 0.009416 0.523018
v 0.139493 0.148909 0.408294
v 0.000000 0.188578 0.430945
v 0.376769 0.009416 -1.447277
v 0.244855 0.254271 -1.022449
v 0.308195 0.009416 -1.009737
v 0.000000 -0.375043 -1.416827
v 0.244855 -0.235439 -1.022449
v 0.000000 -0.305069 -0.970356
v -0.416950 0.009417 -4.776876
v -0.124938 -0.115521 -4.983119
v -0.331258 -0.321841 -4.763597
v 0.000000 -0.416043 -4.814384
v 0.124938 -0.115521 -4.983119
v 0.331258 -0.321841 -4.763597
v 0.416950 0.009417 -4.776876
v 0.124938 0.134355 -4.983119
v 0.331258 0.340675 -4.763597
v 0.000000 0.434877 -4.814384
v -0.124938 0.134355 -4.983119
v -0.331258 0.340675 -4.763597
v 0.000000 0.009417 -5.055143
v 0.000000 0.169884 -4.997927
v 0.000000 0.514148 -2.479073
v -0.299335 0.308751 -1.456970
v 0.000000 0.588474 -3.363430
v -0.392979 0.402395 -2.490787
v -0.469719 0.479136 -4.141087
v -0.450847 0.460264 -3.351475
v 0.000000 0.612712 -4.174756
v -0.446028 0.455445 -4.449587
v 0.494636 0.009416 -2.488276
v 0.299335 0.308751 -1.456970
v 0.567475 0.009417 -3.354944
v 0.392979 0.402395 -2.490786
v 0.469719 0.479136 -4.141087
v 0.450847 0.460264 -3.351475
v 0.591228 0.009417 -4.150043
v 0.446028 0.455445 -4.449587
v 0.000000 -0.495316 -2.479072
v 0.299335 -0.289919 -1.456970
v 0.000000 -0.569640 -3.363430
v 0.392979 -0.383563 -2.490786
v 0.469719 -0.460302 -4.141087
v 0.450847 -0.441430 -3.351475
v 0.000000 -0.593878 -4.174756
v 0.446028 -0.436611 -4.449587
v -0.494636 0.009416 -2.488276
v -0.299335 -0.289919 -1.456970
v -0.567475 0.009417 -3.354944
v -0.392979 -0.383563 -2.490786
v -0.469719 -0.460302 -4.141087
v -0.450847 -0.441430 -3.351475
v -0.591228 0.009417 -4.150043
v -0.446028 -0.436611 -4.449587
v 0.000000 0.582284 -4.491738
v 0.561409 0.009417 -4.460685
v 0.000000 -0.563450 -4.491738
v -0.561409 0.009417 -4.460685
v 0.139493 -0.130077 0.408293
v 0.000000 -0.169746 0.430945
v 0.175578 0.009416 0.430945
v -0.139493 -0.130077 0.408293
v -0.175578 0.009416 0.430945
v -0.139493 0.148909 0.408294
v 0.157257 0.009417 -4.997925
v 0.000000 -0.151050 -4.997927
v -0.157257 0.009417 -4.997927
vt 0.355465 0.349502
vt 0.310478 0.377278
vt 0.305229 0.349319
vt 0.348083 0.497421
vt 0.299846 0.525852
vt 0.299249 0.497934
vt 0.061300 0.434233
vt 0.092446 0.472271
vt 0.061283 0.477628
vt 0.357656 0.217938
vt 0.309516 0.244848
vt 0.308430 0.217540
vt 0.337981 0.750548
vt 0.294096 0.778115
vt 0.289665 0.750691
vt 0.767428 0.521813
vt 0.733194 0.545728
vt 0.733392 0.505465
vt 0.714974 0.751017
vt 0.749008 0.770455
vt 0.714251 0.788227
vt 0.750468 0.216529
vt 0.772323 0.230518
vt 0.747666 0.253401
vt 0.754867 0.359168
vt 0.772641 0.375434
vt 0.748779 0.396867
vt 0.957695 0.698138
vt 0.976373 0.696448
vt 0.971104 0.708168
vt 0.477726 0.351425
vt 0.361927 0.383987
vt 0.358383 0.349819
vt 0.580980 0.352371
vt 0.482142 0.396415
vt 0.481711 0.351656
vt 0.585581 0.355210
vt 0.670832 0.410924
vt 0.582454 0.406482
vt 0.679006 0.356508
vt 0.707551 0.408532
vt 0.673042 0.409825
vt 0.477773 0.216913
vt 0.361903 0.250988
vt 0.360788 0.217620
vt 0.577728 0.216079
vt 0.481135 0.261416
vt 0.480418 0.217604
vt 0.581478 0.216850
vt 0.669417 0.268992
vt 0.580883 0.267122
vt 0.675199 0.216102
vt 0.707351 0.266395
vt 0.672807 0.268440
vt 0.453712 0.750454
vt 0.342709 0.784005
vt 0.339420 0.750620
vt 0.550013 0.750724
vt 0.455338 0.794333
vt 0.455131 0.750636
vt 0.551661 0.751240
vt 0.633932 0.804178
vt 0.549513 0.801322
vt 0.640992 0.750657
vt 0.670146 0.801352
vt 0.637003 0.802838
vt 0.464992 0.498295
vt 0.349354 0.531671
vt 0.349470 0.497560
vt 0.562548 0.500268
vt 0.465103 0.543082
vt 0.466662 0.498348
vt 0.564459 0.500435
vt 0.649040 0.556648
vt 0.562058 0.551732
vt 0.655282 0.502027
vt 0.686596 0.554808
vt 0.652383 0.555458
vt 0.717563 0.357055
vt 0.746134 0.396669
vt 0.711108 0.407689
vt 0.713436 0.216606
vt 0.745732 0.254066
vt 0.710555 0.266281
vt 0.675994 0.750925
vt 0.710264 0.790822
vt 0.673775 0.800656
vt 0.692290 0.504241
vt 0.728849 0.546165
vt 0.690894 0.555040
vt 0.288125 0.750682
vt 0.139696 0.766988
vt 0.137615 0.751434
vt 0.303351 0.216637
vt 0.143988 0.232186
vt 0.141537 0.216637
vt 0.298024 0.497552
vt 0.140964 0.516667
vt 0.138520 0.500770
vt 0.300348 0.348257
vt 0.145309 0.364157
vt 0.142985 0.348257
vt 0.145606 0.330236
vt 0.300513 0.345515
vt 0.143149 0.345515
vt 0.139498 0.734763
vt 0.288092 0.749492
vt 0.137583 0.750338
vt 0.710523 0.710227
vt 0.675566 0.749523
vt 0.674211 0.699761
vt 0.747679 0.319039
vt 0.717696 0.353837
vt 0.713111 0.304863
vt 0.670346 0.699135
vt 0.639797 0.749001
vt 0.637258 0.696730
vt 0.634648 0.697067
vt 0.551859 0.749191
vt 0.550206 0.699090
vt 0.455328 0.705782
vt 0.549831 0.749761
vt 0.454950 0.749478
vt 0.342126 0.716257
vt 0.453178 0.749642
vt 0.338886 0.749647
vt 0.710165 0.304260
vt 0.679023 0.352273
vt 0.675778 0.300689
vt 0.672345 0.299564
vt 0.584509 0.349028
vt 0.583858 0.299564
vt 0.483580 0.304993
vt 0.580588 0.350732
vt 0.481354 0.348031
vt 0.362856 0.314663
vt 0.477206 0.349625
vt 0.357874 0.347363
vt 0.957360 0.697119
vt 0.971748 0.681021
vt 0.976181 0.695035
vt 0.773530 0.345222
vt 0.755237 0.356123
vt 0.750800 0.319562
vt 0.748947 0.729873
vt 0.715105 0.749645
vt 0.714016 0.712443
vt 0.293583 0.722304
vt 0.337512 0.749800
vt 0.289196 0.749735
vt 0.058930 0.432658
vt 0.025793 0.471493
vt 0.015296 0.440599
vt 0.311223 0.318969
vt 0.355223 0.346469
vt 0.304993 0.345660
vt 0.015539 0.405915
vt 0.057904 0.430562
vt 0.015851 0.437239
vt 0.946121 0.716733
vt 0.956445 0.699755
vt 0.959648 0.716885
vt 0.139731 0.483130
vt 0.297410 0.496195
vt 0.137900 0.499109
vt 0.144003 0.198937
vt 0.303405 0.214652
vt 0.141591 0.214652
vt 0.730281 0.460927
vt 0.691922 0.501210
vt 0.692752 0.450399
vt 0.746974 0.175971
vt 0.713356 0.213294
vt 0.712249 0.163048
vt 0.690437 0.449999
vt 0.655499 0.500455
vt 0.656355 0.446951
vt 0.651655 0.446591
vt 0.563849 0.497622
vt 0.564534 0.446273
vt 0.466657 0.452457
vt 0.562526 0.498692
vt 0.466632 0.497218
vt 0.349794 0.462538
vt 0.465010 0.497344
vt 0.349487 0.496647
vt 0.708031 0.164000
vt 0.674469 0.214033
vt 0.673557 0.161121
vt 0.669093 0.160570
vt 0.581157 0.213233
vt 0.580559 0.162454
vt 0.480624 0.169650
vt 0.578031 0.213872
vt 0.480709 0.213910
vt 0.362083 0.181736
vt 0.478139 0.215898
vt 0.361152 0.215448
vt 0.937308 0.688038
vt 0.955565 0.697137
vt 0.938012 0.701997
vt 0.772811 0.199824
vt 0.750246 0.213978
vt 0.749325 0.176642
vt 0.734733 0.463088
vt 0.767487 0.488993
vt 0.732540 0.503292
vt 0.309830 0.187798
vt 0.357656 0.215781
vt 0.308431 0.215368
vt 0.093133 0.389876
vt 0.061029 0.428159
vt 0.061528 0.384060
vt 0.299538 0.468539
vt 0.348111 0.496392
vt 0.299274 0.496462
vt 0.356325 0.351539
vt 0.360044 0.385688
vt 0.311287 0.379233
vt 0.348672 0.498069
vt 0.348581 0.532180
vt 0.300283 0.526241
vt 0.062076 0.433072
vt 0.104785 0.433319
vt 0.099987 0.464371
vt 0.358951 0.218444
vt 0.359868 0.251819
vt 0.311010 0.245707
vt 0.338775 0.751143
vt 0.341679 0.784564
vt 0.294868 0.778674
vt 0.734195 0.504115
vt 0.769004 0.489882
vt 0.775921 0.502426
vt 0.717290 0.749828
vt 0.749269 0.736983
vt 0.756473 0.748960
vt 0.751105 0.215802
vt 0.775114 0.215811
vt 0.773021 0.229695
vt 0.755610 0.358337
vt 0.775175 0.360557
vt 0.773240 0.374761
vt 0.957223 0.695083
vt 0.953020 0.677969
vt 0.966686 0.677356
vt 0.478261 0.353522
vt 0.478177 0.398283
vt 0.362355 0.385700
vt 0.582105 0.354207
vt 0.580049 0.405534
vt 0.483519 0.398812
vt 0.585887 0.353582
vt 0.676777 0.355661
vt 0.671311 0.409030
vt 0.681084 0.355725
vt 0.716444 0.356810
vt 0.710144 0.407463
vt 0.478330 0.218598
vt 0.478581 0.262415
vt 0.362406 0.252489
vt 0.579116 0.217178
vt 0.579198 0.267453
vt 0.482496 0.262457
vt 0.583353 0.215678
vt 0.672511 0.215644
vt 0.671173 0.268019
vt 0.677048 0.215828
vt 0.711758 0.216577
vt 0.708985 0.266258
vt 0.454446 0.750957
vt 0.454599 0.794655
vt 0.343589 0.784988
vt 0.550625 0.751607
vt 0.548173 0.801675
vt 0.455964 0.795247
vt 0.552834 0.750987
vt 0.639612 0.750721
vt 0.635748 0.802911
vt 0.641323 0.750410
vt 0.675365 0.750811
vt 0.671589 0.800449
vt 0.465866 0.498949
vt 0.464570 0.543692
vt 0.350209 0.532258
vt 0.563665 0.500624
vt 0.561265 0.551922
vt 0.466292 0.543602
vt 0.566119 0.499257
vt 0.653775 0.502464
vt 0.650433 0.555870
vt 0.656488 0.502562
vt 0.690888 0.503451
vt 0.689573 0.554252
vt 0.718497 0.356361
vt 0.754053 0.358224
vt 0.747296 0.395809
vt 0.714217 0.216090
vt 0.749219 0.216468
vt 0.746730 0.253362
vt 0.676273 0.750471
vt 0.714197 0.750597
vt 0.713320 0.787804
vt 0.693729 0.503217
vt 0.731957 0.506063
vt 0.731746 0.543822
vt 0.288692 0.751409
vt 0.293712 0.778732
vt 0.140295 0.768015
vt 0.305868 0.218495
vt 0.307159 0.245794
vt 0.146516 0.234149
vt 0.297571 0.498820
vt 0.298911 0.526712
vt 0.140525 0.518056
vt 0.302555 0.351949
vt 0.307701 0.379927
vt 0.147346 0.366102
vt 0.147882 0.326875
vt 0.308552 0.316352
vt 0.302690 0.343126
vt 0.139721 0.733624
vt 0.293005 0.721157
vt 0.288297 0.748535
vt 0.713379 0.712077
vt 0.714368 0.749282
vt 0.676444 0.749522
vt 0.749373 0.319829
vt 0.754414 0.356312
vt 0.718873 0.354176
vt 0.672154 0.700021
vt 0.674920 0.749724
vt 0.640877 0.749434
vt 0.635523 0.697720
vt 0.639350 0.749913
vt 0.552572 0.749584
vt 0.456373 0.704743
vt 0.548640 0.699218
vt 0.550601 0.749308
vt 0.343081 0.715349
vt 0.454073 0.705488
vt 0.453997 0.749186
vt 0.711810 0.305156
vt 0.716275 0.354141
vt 0.680908 0.353323
vt 0.673418 0.301101
vt 0.676689 0.352684
vt 0.585792 0.350937
vt 0.485079 0.303247
vt 0.581800 0.299508
vt 0.582093 0.348976
vt 0.364129 0.312406
vt 0.480397 0.303826
vt 0.478626 0.346884
vt 0.957503 0.699245
vt 0.970894 0.709159
vt 0.961230 0.717530
vt 0.773861 0.345831
vt 0.775512 0.359550
vt 0.755945 0.357344
vt 0.757127 0.757639
vt 0.748349 0.768515
vt 0.718433 0.751407
vt 0.293894 0.722075
vt 0.340691 0.716075
vt 0.337866 0.749503
vt 0.060655 0.434103
vt 0.060655 0.477498
vt 0.029493 0.472128
vt 0.312769 0.317774
vt 0.361716 0.312260
vt 0.356944 0.344991
vt 0.020898 0.396392
vt 0.050751 0.385162
vt 0.058981 0.428152
vt 0.944968 0.715727
vt 0.938176 0.703512
vt 0.955640 0.698342
vt 0.140333 0.482009
vt 0.298287 0.467468
vt 0.297985 0.495391
vt 0.146727 0.196313
vt 0.307445 0.186093
vt 0.305961 0.213659
vt 0.732134 0.461586
vt 0.731895 0.499344
vt 0.693637 0.501736
vt 0.748026 0.176618
vt 0.749222 0.213947
vt 0.714218 0.213769
vt 0.691557 0.450842
vt 0.690791 0.501654
vt 0.656383 0.501134
vt 0.654797 0.447310
vt 0.654548 0.500820
vt 0.566874 0.498139
vt 0.466501 0.451435
vt 0.561671 0.445809
vt 0.562617 0.497153
vt 0.350601 0.461570
vt 0.465113 0.451764
vt 0.465773 0.496521
vt 0.710881 0.163887
vt 0.712013 0.214133
vt 0.677295 0.213903
vt 0.671441 0.161553
vt 0.672290 0.214466
vt 0.583136 0.213595
vt 0.482286 0.168438
vt 0.578896 0.162066
vt 0.579610 0.212843
vt 0.362283 0.179065
vt 0.478473 0.169639
vt 0.478139 0.213898
vt 0.938268 0.686565
vt 0.949984 0.679161
vt 0.956400 0.695823
vt 0.774093 0.200678
vt 0.775246 0.214810
vt 0.751240 0.214363
vt 0.776343 0.505339
vt 0.770045 0.518204
vt 0.734584 0.505683
vt 0.311185 0.186507
vt 0.360055 0.180680
vt 0.359070 0.214390
vt 0.100378 0.401644
vt 0.104860 0.432743
vt 0.062151 0.432557
vt 0.300482 0.467899
vt 0.348772 0.461890
vt 0.348912 0.496001
vn -0.2981 0.9429 0.1487
vn -0.2905 0.9444 0.1539
vn -0.2995 0.9426 0.1477
vn -0.9554 -0.2545 0.1498
vn -0.9557 -0.2525 0.1511
vn -0.9553 -0.2549 0.1497
vn 0.2646 0.4408 0.8577
vn 0.9554 0.2544 0.1498
vn 0.9558 0.2524 0.1511
vn 0.9553 0.2549 0.1497
vn 0.2981 -0.9429 0.1487
vn 0.2905 -0.9444 0.1539
vn 0.2995 -0.9426 0.1477
vn -0.6195 -0.1908 -0.7615
vn 0.2781 -0.5556 -0.7836
vn 0.6195 0.1908 -0.7615
vn -0.2781 0.5556 -0.7836
vn -0.2028 0.3289 -0.9223
vn -0.2829 0.9530 0.1086
vn -0.2771 0.9545 0.1106
vn -0.2853 0.9524 0.1078
vn -0.2741 0.9583 0.0809
vn -0.2713 0.9590 0.0824
vn -0.2749 0.9581 0.0805
vn -0.2715 0.9620 0.0287
vn -0.2724 0.9617 0.0293
vn -0.2727 0.9617 0.0295
vn -0.2788 0.9557 -0.0945
vn -0.2802 0.9555 -0.0921
vn -0.2786 0.9557 -0.0948
vn 0.9616 0.2517 0.1091
vn 0.9619 0.2503 0.1097
vn 0.9615 0.2523 0.1089
vn 0.9650 0.2493 0.0815
vn 0.9650 0.2493 0.0814
vn 0.9648 0.2501 0.0811
vn 0.9678 0.2500 0.0290
vn 0.9678 0.2499 0.0290
vn 0.9678 0.2501 0.0291
vn 0.9634 0.2513 -0.0928
vn 0.9635 0.2512 -0.0930
vn 0.9635 0.2510 -0.0933
vn 0.2829 -0.9530 0.1086
vn 0.2771 -0.9545 0.1106
vn 0.2853 -0.9524 0.1078
vn 0.2741 -0.9583 0.0809
vn 0.2713 -0.9590 0.0824
vn 0.2749 -0.9581 0.0805
vn 0.2715 -0.9620 0.0287
vn 0.2724 -0.9617 0.0293
vn 0.2727 -0.9617 0.0295
vn 0.2788 -0.9557 -0.0945
vn 0.2802 -0.9555 -0.0922
vn 0.2786 -0.9557 -0.0948
vn -0.9616 -0.2517 0.1091
vn -0.9619 -0.2503 0.1097
vn -0.9615 -0.2523 0.1089
vn -0.9649 -0.2497 0.0812
vn -0.9650 -0.2493 0.0814
vn -0.9648 -0.2501 0.0811
vn -0.9678 -0.2500 0.0290
vn -0.9678 -0.2499 0.0290
vn -0.9678 -0.2501 0.0291
vn -0.9634 -0.2513 -0.0928
vn -0.9635 -0.2512 -0.0930
vn -0.9635 -0.2510 -0.0933
vn -0.2848 0.8621 -0.4192
vn 0.8815 0.2412 -0.4060
vn 0.8818 0.2439 -0.4036
vn 0.8809 0.2381 -0.4090
vn 0.2848 -0.8621 -0.4192
vn -0.8815 -0.2412 -0.4060
vn -0.8818 -0.2439 -0.4036
vn -0.8809 -0.2381 -0.4090
vn 0.2874 -0.9534 0.0919
vn 0.2893 -0.9528 0.0917
vn 0.2862 -0.9537 0.0921
vn 0.9614 0.2604 0.0887
vn 0.9625 0.2562 0.0893
vn 0.9608 0.2629 0.0884
vn -0.9614 -0.2604 0.0887
vn -0.9625 -0.2562 0.0893
vn -0.9608 -0.2629 0.0884
vn -0.2874 0.9534 0.0919
vn -0.2893 0.9528 0.0917
vn -0.2862 0.9537 0.0921
vn 0.2893 0.9528 0.0917
vn 0.2874 0.9534 0.0919
vn 0.2862 0.9537 0.0921
vn -0.2893 -0.9528 0.0917
vn -0.2874 -0.9534 0.0919
vn -0.2862 -0.9537 0.0921
vn -0.2848 -0.8621 -0.4192
vn 0.2848 0.8621 -0.4192
vn -0.2802 -0.9555 -0.0922
vn -0.2788 -0.9557 -0.0945
vn -0.2786 -0.9557 -0.0948
vn -0.2724 -0.9617 0.0293
vn -0.2715 -0.9620 0.0287
vn -0.2727 -0.9617 0.0295
vn -0.2713 -0.9590 0.0824
vn -0.2741 -0.9583 0.0809
vn -0.2749 -0.9581 0.0805
vn -0.2771 -0.9545 0.1106
vn -0.2829 -0.9530 0.1086
vn -0.2853 -0.9524 0.1078
vn 0.2802 0.9555 -0.0921
vn 0.2788 0.9557 -0.0945
vn 0.2786 0.9557 -0.0948
vn 0.2724 0.9617 0.0294
vn 0.2715 0.9620 0.0287
vn 0.2727 0.9617 0.0295
vn 0.2713 0.9590 0.0824
vn 0.2741 0.9583 0.0809
vn 0.2749 0.9581 0.0805
vn 0.2771 0.9545 0.1106
vn 0.2829 0.9530 0.1086
vn 0.2853 0.9524 0.1078
vn 0.3353 0.1959 -0.9215
vn 0.2781 0.5556 -0.7836
vn -0.2781 -0.5556 -0.7836
vn -0.2905 -0.9444 0.1539
vn -0.2981 -0.9429 0.1487
vn -0.2995 -0.9426 0.1477
vn -0.4490 0.2552 0.8563
vn 0.2905 0.9444 0.1539
vn 0.2981 0.9429 0.1487
vn 0.2995 0.9426 0.1477
vn -0.4490 -0.2552 0.8563
vn 0.3353 -0.1959 -0.9215
vn -0.9625 0.2562 0.0893
vn -0.9614 0.2604 0.0887
vn -0.9608 0.2629 0.0884
vn 0.9625 -0.2562 0.0893
vn 0.9614 -0.2604 0.0887
vn 0.9608 -0.2629 0.0884
vn -0.8818 0.2439 -0.4036
vn -0.8815 0.2412 -0.4060
vn -0.8809 0.2381 -0.4090
vn 0.8818 -0.2439 -0.4036
vn 0.8815 -0.2412 -0.4060
vn 0.8809 -0.2381 -0.4090
vn -0.9635 0.2512 -0.0930
vn -0.9634 0.2513 -0.0928
vn -0.9635 0.2510 -0.0933
vn -0.9678 0.2499 0.0290
vn -0.9678 0.2500 0.0290
vn -0.9678 0.2501 0.0291
vn -0.9650 0.2493 0.0814
vn -0.9649 0.2496 0.0813
vn -0.9648 0.2501 0.0811
vn -0.9620 0.2503 0.1096
vn -0.9616 0.2517 0.1092
vn -0.9615 0.2523 0.1089
vn 0.9635 -0.2512 -0.0930
vn 0.9634 -0.2513 -0.0928
vn 0.9635 -0.2510 -0.0933
vn 0.9678 -0.2499 0.0290
vn 0.9678 -0.2500 0.0290
vn 0.9678 -0.2501 0.0291
vn 0.9650 -0.2493 0.0814
vn 0.9650 -0.2493 0.0815
vn 0.9648 -0.2501 0.0811
vn 0.9619 -0.2503 0.1097
vn 0.9616 -0.2517 0.1092
vn 0.9615 -0.2523 0.1089
vn -0.2028 -0.3289 -0.9223
vn 0.6195 -0.1908 -0.7615
vn -0.6195 0.1908 -0.7615
vn 0.9557 -0.2525 0.1511
vn 0.9554 -0.2545 0.1498
vn 0.9553 -0.2549 0.1497
vn 0.2646 -0.4408 0.8577
vn -0.9558 0.2524 0.1511
vn -0.9554 0.2544 0.1498
vn -0.9553 0.2549 0.1497
vn -0.2894 0.9446 0.1547
vn -0.9558 -0.2521 0.1514
vn 0.4490 0.2552 0.8563
vn 0.9558 0.2521 0.1514
vn 0.2894 -0.9446 0.1547
vn -0.6276 -0.2498 -0.7374
vn 0.2511 -0.5512 -0.7957
vn 0.6276 0.2497 -0.7374
vn -0.2511 0.5512 -0.7957
vn -0.3353 0.1960 -0.9215
vn -0.2749 0.9550 0.1114
vn -0.2706 0.9591 0.0827
vn -0.2804 0.9555 -0.0917
vn 0.9621 0.2496 0.1098
vn 0.9651 0.2490 0.0816
vn 0.9679 0.2498 0.0289
vn 0.9634 0.2515 -0.0925
vn 0.2749 -0.9550 0.1114
vn 0.2706 -0.9591 0.0827
vn 0.2804 -0.9555 -0.0917
vn -0.9621 -0.2496 0.1098
vn -0.9651 -0.2490 0.0816
vn -0.9679 -0.2498 0.0289
vn -0.9634 -0.2515 -0.0925
vn -0.3068 0.8657 -0.3955
vn 0.8820 0.2443 -0.4030
vn 0.3068 -0.8657 -0.3955
vn -0.8820 -0.2443 -0.4030
vn 0.2903 -0.9525 0.0915
vn 0.9631 0.2538 0.0896
vn -0.9631 -0.2538 0.0896
vn -0.2903 0.9525 0.0915
vn 0.2903 0.9525 0.0915
vn -0.2903 -0.9525 0.0915
vn -0.3068 -0.8657 -0.3955
vn 0.3068 0.8657 -0.3955
vn -0.2804 -0.9555 -0.0917
vn -0.2706 -0.9591 0.0827
vn -0.2749 -0.9550 0.1114
vn 0.2804 0.9555 -0.0917
vn 0.2706 0.9591 0.0827
vn 0.2749 0.9550 0.1114
vn 0.2028 0.3289 -0.9223
vn 0.2511 0.5512 -0.7957
vn -0.2511 -0.5512 -0.7957
vn -0.2894 -0.9446 0.1547
vn -0.2646 0.4408 0.8577
vn 0.2894 0.9446 0.1547
vn -0.2646 -0.4408 0.8577
vn 0.2028 -0.3289 -0.9223
vn -0.9631 0.2538 0.0896
vn 0.9631 -0.2538 0.0896
vn -0.8820 0.2443 -0.4030
vn 0.8820 -0.2443 -0.4030
vn -0.9634 0.2515 -0.0925
vn -0.9679 0.2498 0.0289
vn -0.9651 0.2490 0.0816
vn -0.9621 0.2496 0.1098
vn 0.9634 -0.2515 -0.0925
vn 0.9679 -0.2498 0.0289
vn 0.9651 -0.2490 0.0816
vn 0.9621 -0.2496 0.1098
vn -0.3353 -0.1960 -0.9215
vn 0.6276 -0.2497 -0.7374
vn -0.6276 0.2498 -0.7374
vn 0.9558 -0.2521 0.1514
vn 0.4490 -0.2552 0.8563
vn -0.9558 0.2521 0.1514
usemtl Material.001
s 1
f 1/1/1 2/2/2 3/3/3
f 4/4/4 5/5/5 6/6/6
f 7/7/7 8/8/7 9/9/7
f 10/10/8 11/11/9 12/12/10
f 13/13/11 14/14/12 15/15/13
f 16/16/14 17/17/14 18/18/14
f 19/19/15 20/20/15 21/21/15
f 22/22/16 23/23/16 24/24/16
f 25/25/17 26/26/17 27/27/17
f 28/28/18 26/29/18 29/30/18
f 30/31/19 31/32/20 1/33/21
f 32/34/22 33/35/23 30/36/24
f 32/37/25 34/38/26 35/39/27
f 36/40/28 37/41/29 34/42/30
f 38/43/31 39/44/32 10/45/33
f 40/46/34 41/47/35 38/48/36
f 40/49/37 42/50/38 43/51/39
f 44/52/40 45/53/41 42/54/42
f 46/55/43 47/56/44 13/57/45
f 48/58/46 49/59/47 46/60/48
f 48/61/49 50/62/50 51/63/51
f 52/64/52 53/65/53 50/66/54
f 54/67/55 55/68/56 4/69/57
f 56/70/58 57/71/59 54/72/60
f 56/73/61 58/74/62 59/75/63
f 60/76/64 61/77/65 58/78/66
f 62/79/67 27/80/67 37/81/67
f 63/82/68 24/83/69 45/84/70
f 64/85/71 21/86/71 53/87/71
f 65/88/72 18/89/73 61/90/74
f 15/91/75 66/92/76 67/93/77
f 12/94/78 8/95/79 68/96/80
f 6/97/81 69/98/82 70/99/83
f 3/100/84 71/101/85 9/102/86
f 8/103/87 3/104/88 9/105/89
f 69/106/90 15/107/91 67/108/92
f 18/109/93 64/110/93 61/111/93
f 24/112/94 62/113/94 45/114/94
f 61/115/95 52/116/96 58/117/97
f 58/118/98 48/119/99 59/120/100
f 57/121/101 48/122/102 46/123/103
f 55/124/104 46/125/105 13/126/106
f 45/127/107 36/128/108 42/129/109
f 42/130/110 32/131/111 43/132/112
f 41/133/113 32/134/114 30/135/115
f 39/136/116 30/137/117 1/138/118
f 28/139/119 23/140/119 72/141/119
f 23/142/120 25/143/120 24/144/120
f 17/145/121 19/146/121 18/147/121
f 5/148/122 13/149/123 15/150/124
f 7/151/125 71/152/125 70/153/125
f 11/154/126 1/155/127 3/156/128
f 69/157/129 7/158/129 70/159/129
f 20/160/130 28/161/130 72/162/130
f 71/163/131 6/164/132 70/165/133
f 66/166/134 12/167/135 68/168/136
f 27/169/137 65/170/138 37/171/139
f 21/172/140 63/173/141 53/174/142
f 37/175/143 60/176/144 34/177/145
f 34/178/146 56/179/147 35/180/148
f 33/181/149 56/182/150 54/183/151
f 31/184/152 54/185/153 4/186/154
f 53/187/155 44/188/156 50/189/157
f 50/190/158 40/191/159 51/192/160
f 49/193/161 40/194/162 38/195/163
f 47/196/164 38/197/165 10/198/166
f 17/199/167 28/200/167 73/201/167
f 20/202/168 22/203/168 21/204/168
f 26/205/169 16/206/169 27/207/169
f 14/208/170 10/209/171 12/210/172
f 66/211/173 7/212/173 67/213/173
f 2/214/174 4/215/175 6/216/176
f 1/217/1 31/218/177 2/219/2
f 4/220/4 55/221/178 5/222/5
f 7/223/179 68/224/179 8/225/179
f 10/226/8 39/227/180 11/228/9
f 13/229/11 47/230/181 14/231/12
f 16/232/182 74/233/182 17/234/182
f 19/235/183 73/236/183 20/237/183
f 22/238/184 72/239/184 23/240/184
f 25/241/185 29/242/185 26/243/185
f 28/244/186 74/245/186 26/246/186
f 30/247/19 33/248/187 31/249/20
f 32/250/22 35/251/188 33/252/23
f 32/253/25 36/254/25 34/255/26
f 36/256/28 62/257/189 37/258/29
f 38/259/31 41/260/190 39/261/32
f 40/262/34 43/263/191 41/264/35
f 40/265/37 44/266/192 42/267/38
f 44/268/40 63/269/193 45/270/41
f 46/271/43 49/272/194 47/273/44
f 48/274/46 51/275/195 49/276/47
f 48/277/49 52/278/49 50/279/50
f 52/280/52 64/281/196 53/282/53
f 54/283/55 57/284/197 55/285/56
f 56/286/58 59/287/198 57/288/59
f 56/289/61 60/290/199 58/291/62
f 60/292/64 65/293/200 61/294/65
f 62/295/201 25/296/201 27/297/201
f 63/298/68 22/299/202 24/300/69
f 64/301/203 19/302/203 21/303/203
f 65/304/72 16/305/204 18/306/73
f 15/307/75 14/308/205 66/309/76
f 12/310/78 11/311/206 8/312/79
f 6/313/81 5/314/207 69/315/82
f 3/316/84 2/317/208 71/318/85
f 8/319/87 11/320/209 3/321/88
f 69/322/90 5/323/210 15/324/91
f 18/325/211 19/326/211 64/327/211
f 24/328/212 25/329/212 62/330/212
f 61/331/95 64/332/213 52/333/96
f 58/334/98 52/335/99 48/336/99
f 57/337/101 59/338/214 48/339/102
f 55/340/104 57/341/215 46/342/105
f 45/343/107 62/344/216 36/345/108
f 42/346/110 36/347/111 32/348/111
f 41/349/113 43/350/217 32/351/114
f 39/352/116 41/353/218 30/354/117
f 28/355/219 29/356/219 23/357/219
f 23/358/220 29/359/220 25/360/220
f 17/361/221 73/362/221 19/363/221
f 5/364/122 55/365/222 13/366/123
f 7/367/223 9/368/223 71/369/223
f 11/370/126 39/371/224 1/372/127
f 69/373/225 67/374/225 7/375/225
f 20/376/226 73/377/226 28/378/226
f 71/379/131 2/380/227 6/381/132
f 66/382/134 14/383/228 12/384/135
f 27/385/137 16/386/229 65/387/138
f 21/388/140 22/389/230 63/390/141
f 37/391/143 65/392/231 60/393/144
f 34/394/146 60/395/232 56/396/147
f 33/397/149 35/398/233 56/399/150
f 31/400/152 33/401/234 54/402/153
f 53/403/155 63/404/235 44/405/156
f 50/406/158 44/407/236 40/408/159
f 49/409/161 51/410/237 40/411/162
f 47/412/164 49/413/238 38/414/165
f 17/415/239 74/416/239 28/417/239
f 20/418/240 72/419/240 22/420/240
f 26/421/241 74/422/241 16/423/241
f 14/424/170 47/425/242 10/426/171
f 66/427/243 68/428/243 7/429/243
f 2/430/174 31/431/244 4/432/175
