# Blender v3.1.2 OBJ File: ''
# www.blender.org
mtllib Club.mtl
o Cube
v 0.299335 1.116386 -0.299335
v 0.139493 -0.748877 -0.139493
v 0.299335 1.116386 0.299335
v 0.139493 -0.748877 0.139493
v -0.299335 1.116386 -0.299335
v -0.139493 -0.748877 -0.139493
v -0.299335 1.116386 0.299335
v -0.139493 -0.748877 0.139493
v -0.124938 4.642535 0.124938
v -0.124938 4.642535 -0.124938
v 0.124938 4.642535 0.124938
v 0.124938 4.642535 -0.124938
v -0.392979 2.150203 0.392979
v -0.450847 3.010891 0.450847
v -0.469719 3.800503 0.469719
v -0.446028 4.109003 0.446028
v -0.446028 4.109003 -0.446028
v -0.469719 3.800503 -0.469719
v -0.450847 3.010891 -0.450847
v -0.392979 2.150202 -0.392979
v 0.446028 4.109003 -0.446028
v 0.469719 3.800503 -0.469719
v 0.450847 3.010891 -0.450847
v 0.392979 2.150202 -0.392979
v 0.446028 4.109003 0.446028
v 0.469719 3.800503 0.469719
v 0.450847 3.010891 0.450847
v 0.392979 2.150202 0.392979
v -0.331258 4.423013 0.331258
v -0.331258 4.423013 -0.331258
v 0.331258 4.423013 -0.331258
v 0.331258 4.423013 0.331258
v 0.244855 0.681865 -0.244855
v -0.244855 0.681865 0.244855
v 0.244855 0.681865 0.244855
v -0.244855 0.681865 -0.244855
v 0.000000 -0.771529 -0.179162
v 0.000000 1.076243 0.384459
v 0.000000 -0.771529 0.179162
v 0.000000 1.076243 -0.384459
v 0.000000 4.657343 -0.160467
v 0.000000 4.657343 0.160467
v 0.000000 2.138489 0.504732
v 0.000000 3.022846 0.579057
v 0.000000 3.834172 0.603295
v 0.000000 4.151155 0.572867
v 0.000000 2.138488 -0.504732
v 0.000000 3.022846 -0.579057
v 0.000000 3.834172 -0.603295
v 0.000000 4.151155 -0.572867
v 0.000000 4.473800 0.425460
v 0.000000 4.473800 -0.425460
v 0.000000 0.629772 -0.314485
v 0.000000 0.629772 0.314485
v -0.175578 -0.771529 -0.000000
v 0.376769 1.106693 -0.000000
v -0.376769 1.106693 -0.000000
v 0.175578 -0.771529 -0.000000
v -0.157257 4.657343 -0.000000
v 0.157257 4.657341 -0.000000
v 0.494636 2.147692 -0.000000
v 0.567475 3.014361 -0.000000
v 0.591228 3.809459 -0.000000
v 0.561409 4.120101 -0.000000
v -0.494636 2.147692 -0.000000
v -0.567475 3.014361 -0.000000
v -0.591228 3.809459 -0.000000
v -0.561409 4.120101 -0.000000
v 0.416950 4.436293 -0.000000
v -0.416950 4.436293 -0.000000
v 0.308195 0.669153 -0.000000
v -0.308195 0.669153 -0.000000
v 0.000000 4.714560 -0.000000
v 0.000000 -0.863602 -0.000000
vt 0.625000 0.875000
vt 0.566761 1.000000
vt 0.566761 0.875000
vt 0.625000 0.125000
vt 0.566761 0.250000
vt 0.566761 0.125000
vt 0.250000 0.625000
vt 0.375000 0.750000
vt 0.250000 0.750000
vt 0.625000 0.625000
vt 0.566761 0.750000
vt 0.566761 0.625000
vt 0.625000 0.375000
vt 0.566761 0.500000
vt 0.566761 0.375000
vt 0.600000 0.125000
vt 0.625000 0.250000
vt 0.600000 0.250000
vt 0.600000 0.375000
vt 0.625000 0.500000
vt 0.600000 0.500000
vt 0.600000 0.625000
vt 0.625000 0.750000
vt 0.600000 0.750000
vt 0.600000 0.875000
vt 0.625000 1.000000
vt 0.600000 1.000000
vt 0.750000 0.625000
vt 0.875000 0.750000
vt 0.750000 0.750000
vt 0.425000 0.875000
vt 0.375000 1.000000
vt 0.375000 0.875000
vt 0.475000 0.875000
vt 0.425000 1.000000
vt 0.525000 1.000000
vt 0.475000 1.000000
vt 0.525000 0.875000
vt 0.575000 1.000000
vt 0.425000 0.625000
vt 0.375000 0.750000
vt 0.375000 0.625000
vt 0.475000 0.625000
vt 0.425000 0.750000
vt 0.525000 0.750000
vt 0.475000 0.750000
vt 0.525000 0.625000
vt 0.575000 0.750000
vt 0.425000 0.375000
vt 0.375000 0.500000
vt 0.375000 0.375000
vt 0.475000 0.375000
vt 0.425000 0.500000
vt 0.525000 0.500000
vt 0.475000 0.500000
vt 0.525000 0.375000
vt 0.575000 0.500000
vt 0.425000 0.125000
vt 0.375000 0.250000
vt 0.375000 0.125000
vt 0.475000 0.125000
vt 0.425000 0.250000
vt 0.525000 0.250000
vt 0.475000 0.250000
vt 0.525000 0.125000
vt 0.575000 0.250000
vt 0.575000 0.875000
vt 0.575000 0.625000
vt 0.575000 0.375000
vt 0.575000 0.125000
vt 0.375000 0.500000
vt 0.375000 0.375000
vt 0.375000 0.625000
vt 0.375000 0.250000
vt 0.375000 0.125000
vt 0.375000 1.000000
vt 0.375000 0.875000
vt 0.625000 0.625000
vt 0.125000 0.750000
vt 0.125000 0.625000
vt 0.125000 0.500000
vt 0.375000 0.000000
vt 0.600000 0.000000
vt 0.575000 0.000000
vt 0.525000 0.000000
vt 0.475000 0.000000
vt 0.425000 0.000000
vt 0.375000 0.000000
vt 0.875000 0.500000
vt 0.750000 0.500000
vt 0.625000 0.000000
vt 0.250000 0.500000
vt 0.566761 0.000000
vt 0.625000 1.000000
vt 0.625000 0.250000
vt 0.625000 0.750000
vt 0.625000 0.500000
vt 0.625000 0.125000
vt 0.625000 0.375000
vt 0.625000 0.875000
vt 0.875000 0.625000
vt 0.625000 0.000000
vn -0.2995 -0.1477 0.9426
vn -0.9553 -0.1497 -0.2549
vn 0.2646 -0.8577 0.4408
vn 0.9553 -0.1497 0.2549
vn 0.2995 -0.1477 -0.9426
vn -0.6195 0.7615 -0.1908
vn 0.2781 0.7836 -0.5556
vn 0.6195 0.7615 0.1908
vn -0.2781 0.7836 0.5556
vn -0.2028 0.9223 0.3289
vn -0.2853 -0.1078 0.9524
vn -0.2749 -0.0805 0.9581
vn -0.2727 -0.0295 0.9617
vn -0.2786 0.0948 0.9557
vn 0.9615 -0.1089 0.2523
vn 0.9648 -0.0811 0.2501
vn 0.9678 -0.0291 0.2501
vn 0.9635 0.0933 0.2510
vn 0.2853 -0.1078 -0.9524
vn 0.2749 -0.0805 -0.9581
vn 0.2727 -0.0295 -0.9617
vn 0.2786 0.0948 -0.9557
vn -0.9615 -0.1089 -0.2523
vn -0.9648 -0.0811 -0.2501
vn -0.9678 -0.0291 -0.2501
vn -0.9635 0.0933 -0.2510
vn -0.2848 0.4192 0.8621
vn 0.8809 0.4090 0.2381
vn 0.2848 0.4192 -0.8621
vn -0.8809 0.4090 -0.2381
vn 0.2862 -0.0921 -0.9537
vn 0.9608 -0.0884 0.2629
vn -0.9608 -0.0884 -0.2629
vn -0.2862 -0.0921 0.9537
vn 0.2862 -0.0921 0.9537
vn -0.2862 -0.0921 -0.9537
vn -0.2848 0.4192 -0.8621
vn 0.2848 0.4192 0.8621
vn -0.2786 0.0948 -0.9557
vn -0.2727 -0.0295 -0.9617
vn -0.2749 -0.0805 -0.9581
vn -0.2853 -0.1078 -0.9524
vn 0.2786 0.0948 0.9557
vn 0.2727 -0.0295 0.9617
vn 0.2749 -0.0805 0.9581
vn 0.2853 -0.1078 0.9524
vn 0.3353 0.9215 0.1959
vn 0.2781 0.7836 0.5556
vn -0.2781 0.7836 -0.5556
vn -0.2995 -0.1477 -0.9426
vn -0.4490 -0.8563 0.2552
vn 0.2995 -0.1477 0.9426
vn -0.4490 -0.8563 -0.2552
vn 0.3353 0.9215 -0.1959
vn -0.9608 -0.0884 0.2629
vn 0.9608 -0.0884 -0.2629
vn -0.8809 0.4090 0.2381
vn 0.8809 0.4090 -0.2381
vn -0.9635 0.0933 0.2510
vn -0.9678 -0.0291 0.2501
vn -0.9648 -0.0811 0.2501
vn -0.9615 -0.1089 0.2523
vn 0.9635 0.0933 -0.2510
vn 0.9678 -0.0291 -0.2501
vn 0.9648 -0.0811 -0.2501
vn 0.9615 -0.1089 -0.2523
vn -0.2028 0.9223 -0.3289
vn 0.6195 0.7615 -0.1908
vn -0.6195 0.7615 0.1908
vn 0.9553 -0.1497 -0.2549
vn 0.2646 -0.8577 -0.4408
vn -0.9553 -0.1497 0.2549
vn -0.2894 -0.1547 0.9446
vn -0.9558 -0.1514 -0.2521
vn 0.4490 -0.8563 0.2552
vn 0.9558 -0.1514 0.2521
vn 0.2894 -0.1547 -0.9446
vn -0.6276 0.7374 -0.2497
vn 0.2510 0.7957 -0.5512
vn 0.6276 0.7374 0.2497
vn -0.2510 0.7957 0.5512
vn -0.3353 0.9215 0.1959
vn -0.2749 -0.1114 0.9550
vn -0.2706 -0.0827 0.9591
vn -0.2715 -0.0287 0.9620
vn -0.2804 0.0917 0.9555
vn 0.9621 -0.1098 0.2496
vn 0.9651 -0.0816 0.2490
vn 0.9679 -0.0289 0.2498
vn 0.9634 0.0925 0.2515
vn 0.2749 -0.1114 -0.9550
vn 0.2706 -0.0827 -0.9591
vn 0.2715 -0.0287 -0.9620
vn 0.2804 0.0917 -0.9555
vn -0.9621 -0.1098 -0.2496
vn -0.9651 -0.0816 -0.2490
vn -0.9679 -0.0289 -0.2498
vn -0.9634 0.0925 -0.2515
vn -0.3068 0.3955 0.8657
vn 0.8820 0.4030 0.2443
vn 0.3068 0.3955 -0.8657
vn -0.8820 0.4030 -0.2443
vn 0.2903 -0.0915 -0.9525
vn 0.9631 -0.0896 0.2538
vn -0.9631 -0.0896 -0.2538
vn -0.2903 -0.0915 0.9525
vn 0.2903 -0.0915 0.9525
vn -0.2903 -0.0915 -0.9525
vn -0.3068 0.3955 -0.8657
vn 0.3068 0.3955 0.8657
vn -0.2804 0.0917 -0.9555
vn -0.2715 -0.0287 -0.9620
vn -0.2706 -0.0827 -0.9591
vn -0.2749 -0.1114 -0.9550
vn 0.2804 0.0917 0.9555
vn 0.2715 -0.0287 0.9620
vn 0.2706 -0.0827 0.9591
vn 0.2749 -0.1114 0.9550
vn 0.2028 0.9223 0.3289
vn 0.2510 0.7957 0.5512
vn -0.2510 0.7957 -0.5512
vn -0.2894 -0.1547 -0.9446
vn -0.2646 -0.8577 0.4408
vn 0.2894 -0.1547 0.9446
vn -0.2646 -0.8577 -0.4408
vn 0.2028 0.9223 -0.3289
vn -0.9631 -0.0896 0.2538
vn 0.9631 -0.0896 -0.2538
vn -0.8820 0.4030 0.2443
vn 0.8820 0.4030 -0.2443
vn -0.9634 0.0925 0.2515
vn -0.9679 -0.0289 0.2498
vn -0.9651 -0.0816 0.2490
vn -0.9621 -0.1098 0.2496
vn 0.9634 0.0925 -0.2515
vn 0.9679 -0.0289 -0.2498
vn 0.9651 -0.0816 -0.2490
vn 0.9621 -0.1098 -0.2496
vn -0.3353 0.9215 -0.1960
vn 0.6276 0.7374 -0.2497
vn -0.6276 0.7374 0.2497
vn 0.9558 -0.1514 -0.2521
vn 0.4490 -0.8563 -0.2552
vn -0.9558 -0.1514 0.2521
usemtl Material
s off
f 38/1/1 34/2/1 54/3/1
f 57/4/2 36/5/2 72/6/2
f 74/7/3 4/8/3 39/9/3
f 56/10/4 35/11/4 71/12/4
f 40/13/5 33/14/5 53/15/5
f 70/16/6 10/17/6 30/18/6
f 52/19/7 12/20/7 31/21/7
f 69/22/8 11/23/8 32/24/8
f 51/25/9 9/26/9 29/27/9
f 73/28/10 9/29/10 42/30/10
f 43/31/11 7/32/11 38/33/11
f 44/34/12 13/35/12 43/31/12
f 44/34/13 15/36/13 14/37/13
f 45/38/14 16/39/14 15/36/14
f 61/40/15 3/41/15 56/42/15
f 62/43/16 28/44/16 61/40/16
f 62/43/17 26/45/17 27/46/17
f 63/47/18 25/48/18 26/45/18
f 47/49/19 1/50/19 40/51/19
f 48/52/20 24/53/20 47/49/20
f 48/52/21 22/54/21 23/55/21
f 49/56/22 21/57/22 22/54/22
f 65/58/23 5/59/23 57/60/23
f 66/61/24 20/62/24 65/58/24
f 66/61/25 18/63/25 19/64/25
f 67/65/26 17/66/26 18/63/26
f 46/67/27 29/27/27 16/39/27
f 64/68/28 32/24/28 25/48/28
f 50/69/29 31/21/29 21/57/29
f 68/70/30 30/18/30 17/66/30
f 53/15/31 2/71/31 37/72/31
f 71/12/32 4/8/32 58/73/32
f 72/6/33 6/74/33 55/75/33
f 54/3/34 8/76/34 39/77/34
f 4/8/35 54/3/35 39/77/35
f 6/74/36 53/15/36 37/72/36
f 30/18/37 50/69/37 17/66/37
f 32/24/38 46/67/38 25/48/38
f 17/66/39 49/56/39 18/63/39
f 18/63/40 48/52/40 19/64/40
f 20/62/41 48/52/41 47/49/41
f 5/59/42 47/49/42 40/51/42
f 25/48/43 45/38/43 26/45/43
f 26/45/44 44/34/44 27/46/44
f 28/44/45 44/34/45 43/31/45
f 3/41/46 43/31/46 38/33/46
f 73/28/47 11/23/47 60/78/47
f 11/23/48 51/25/48 32/24/48
f 10/17/49 52/19/49 30/18/49
f 36/5/50 40/13/50 53/15/50
f 74/7/51 8/79/51 55/80/51
f 35/11/52 38/1/52 54/3/52
f 6/81/53 74/7/53 55/80/53
f 12/20/54 73/28/54 60/78/54
f 8/82/55 72/6/55 55/75/55
f 2/71/56 71/12/56 58/73/56
f 29/83/57 68/70/57 16/84/57
f 31/21/58 64/68/58 21/57/58
f 16/84/59 67/65/59 15/85/59
f 15/85/60 66/61/60 14/86/60
f 13/87/61 66/61/61 65/58/61
f 7/88/62 65/58/62 57/60/62
f 21/57/63 63/47/63 22/54/63
f 22/54/64 62/43/64 23/55/64
f 24/53/65 62/43/65 61/40/65
f 1/50/66 61/40/66 56/42/66
f 10/89/67 73/28/67 41/90/67
f 12/20/68 69/22/68 31/21/68
f 9/91/69 70/16/69 29/83/69
f 33/14/70 56/10/70 71/12/70
f 2/71/71 74/7/71 37/92/71
f 34/93/72 57/4/72 72/6/72
f 38/1/73 7/94/73 34/2/73
f 57/4/74 5/95/74 36/5/74
f 74/7/75 58/73/75 4/8/75
f 56/10/76 3/96/76 35/11/76
f 40/13/77 1/97/77 33/14/77
f 70/16/78 59/98/78 10/17/78
f 52/19/79 41/99/79 12/20/79
f 69/22/80 60/78/80 11/23/80
f 51/25/81 42/100/81 9/26/81
f 73/28/82 59/101/82 9/29/82
f 43/31/83 13/35/83 7/32/83
f 44/34/84 14/37/84 13/35/84
f 44/34/85 45/38/85 15/36/85
f 45/38/86 46/67/86 16/39/86
f 61/40/87 28/44/87 3/41/87
f 62/43/88 27/46/88 28/44/88
f 62/43/89 63/47/89 26/45/89
f 63/47/90 64/68/90 25/48/90
f 47/49/91 24/53/91 1/50/91
f 48/52/92 23/55/92 24/53/92
f 48/52/93 49/56/93 22/54/93
f 49/56/94 50/69/94 21/57/94
f 65/58/95 20/62/95 5/59/95
f 66/61/96 19/64/96 20/62/96
f 66/61/97 67/65/97 18/63/97
f 67/65/98 68/70/98 17/66/98
f 46/67/99 51/25/99 29/27/99
f 64/68/100 69/22/100 32/24/100
f 50/69/101 52/19/101 31/21/101
f 68/70/102 70/16/102 30/18/102
f 53/15/103 33/14/103 2/71/103
f 71/12/104 35/11/104 4/8/104
f 72/6/105 36/5/105 6/74/105
f 54/3/106 34/2/106 8/76/106
f 4/8/107 35/11/107 54/3/107
f 6/74/108 36/5/108 53/15/108
f 30/18/109 52/19/109 50/69/109
f 32/24/110 51/25/110 46/67/110
f 17/66/111 50/69/111 49/56/111
f 18/63/112 49/56/112 48/52/112
f 20/62/113 19/64/113 48/52/113
f 5/59/114 20/62/114 47/49/114
f 25/48/115 46/67/115 45/38/115
f 26/45/116 45/38/116 44/34/116
f 28/44/117 27/46/117 44/34/117
f 3/41/118 28/44/118 43/31/118
f 73/28/119 42/30/119 11/23/119
f 11/23/120 42/100/120 51/25/120
f 10/17/121 41/99/121 52/19/121
f 36/5/122 5/95/122 40/13/122
f 74/7/123 39/9/123 8/79/123
f 35/11/124 3/96/124 38/1/124
f 6/81/125 37/92/125 74/7/125
f 12/20/126 41/90/126 73/28/126
f 8/82/127 34/93/127 72/6/127
f 2/71/128 33/14/128 71/12/128
f 29/83/129 70/16/129 68/70/129
f 31/21/130 69/22/130 64/68/130
f 16/84/131 68/70/131 67/65/131
f 15/85/132 67/65/132 66/61/132
f 13/87/133 14/86/133 66/61/133
f 7/88/134 13/87/134 65/58/134
f 21/57/135 64/68/135 63/47/135
f 22/54/136 63/47/136 62/43/136
f 24/53/137 23/55/137 62/43/137
f 1/50/138 24/53/138 61/40/138
f 10/89/139 59/101/139 73/28/139
f 12/20/140 60/78/140 69/22/140
f 9/91/141 59/98/141 70/16/141
f 33/14/142 1/97/142 56/10/142
f 2/71/143 58/73/143 74/7/143
f 34/93/144 7/102/144 57/4/144
